<?xml version="1.0" encoding="utf-8"?>
<!-- Generator: Adobe Illustrator 18.1.1, SVG Export Plug-In . SVG Version: 6.00 Build 0)  -->
<!DOCTYPE svg PUBLIC "-//W3C//DTD SVG 1.1//EN" "http://www.w3.org/Graphics/SVG/1.1/DTD/svg11.dtd">
<svg version="1.1" id="Layer_1" xmlns="http://www.w3.org/2000/svg" xmlns:xlink="http://www.w3.org/1999/xlink" x="0px" y="0px"
	 viewBox="0 0 234 99" enable-background="new 0 0 234 99" xml:space="preserve">
<g>
	<g>
		<linearGradient id="SVGID_1_" gradientUnits="userSpaceOnUse" x1="37.2329" y1="-43.7554" x2="194.7285" y2="62.4767">
			<stop  offset="1.226990e-02" style="stop-color:#D8963E"/>
			<stop  offset="1.811923e-02" style="stop-color:#D9973F"/>
			<stop  offset="0.2062" style="stop-color:#EBBF64"/>
			<stop  offset="0.356" style="stop-color:#F6D77B"/>
			<stop  offset="0.4479" style="stop-color:#FAE083"/>
			<stop  offset="0.5406" style="stop-color:#F7DC80"/>
			<stop  offset="0.6403" style="stop-color:#EDCF76"/>
			<stop  offset="0.7434" style="stop-color:#DDB966"/>
			<stop  offset="0.8487" style="stop-color:#C79B50"/>
			<stop  offset="0.9547" style="stop-color:#AB7534"/>
			<stop  offset="1" style="stop-color:#9D6226"/>
		</linearGradient>
		<path fill="url(#SVGID_1_)" d="M107.1,11.4c0.5-0.3,0.5-0.3,0.5-0.3c0.5,0.2,0.9,0.3,1,0.3c0,0,0,0,0,0c0.7,0.1,0.7,0.1,0.7,0.1
			c0.2,0.8,0.5,1.6,0.5,1.7c0,0,0,0,0,0.1c-0.1,0.5-0.1,0.5-0.1,0.5c-0.4,0.2-0.9,0.4-1.2,0.5c0,0,0,0-0.3,0c-0.7,0-1.4-0.3-1.7-0.9
			C106.1,12.8,106.5,11.7,107.1,11.4z M101.8,21.3c2.6-1.1,5.1-2.6,5.5-5.6c0.1-0.5,0.1-0.5,0.1-0.5c-0.5,0.2-0.9,0.3-1,0.3
			c0,0,0,0,0,0c-1,0.5-1.9,1.3-2.8,2c-1.1,0.8-2,1.8-2.5,3C100.9,20.9,101.3,21.5,101.8,21.3z M98.1,14.8c2.4,0.8,5.4,0.9,7.5-0.8
			c0.1,0,0.1,0,0.1,0c0-0.1,0.2-0.4,0.3-0.7c0,0,0,0-0.2-0.2c-1-1-2.7-0.9-3.9-0.8c-0.8,0.1-1.6,0.3-2.3,0.6
			c-0.5,0.2-1.4,0.4-1.7,0.9C97.6,14.1,97.6,14.6,98.1,14.8z M96.6,19.2c0.2,0.7,0.8,1,1.6,1.1c0.3,0,0.3,0,0.3,0
			c0.3-0.1,0.9-0.2,1.3-0.4c0,0,0,0,0.1-0.4c0-0.1,0-0.1,0-0.1c0-0.1-0.1-0.9-0.3-1.7c0,0,0,0-0.7-0.2c0,0,0,0,0,0
			c0,0-0.4-0.2-0.9-0.4c0,0,0,0-0.5,0.2C96.8,17.5,96.4,18.6,96.6,19.2z M91,26.5c2.7-0.8,5.4-2,6.1-4.9c0.1-0.5,0.1-0.5,0.1-0.5
			c-0.5,0.1-1,0.2-1,0.2c0,0,0,0,0,0c-1,0.3-2.1,1.1-3,1.6c-1.1,0.7-2.2,1.6-2.9,2.7C90.2,26,90.5,26.7,91,26.5z M88.1,19.6
			c2.3,1.1,5.2,1.5,7.5,0.1c0.1,0,0.1,0,0.1,0c0-0.1,0.2-0.4,0.4-0.7c0,0,0,0-0.2-0.3c-0.8-1.1-2.5-1.2-3.8-1.2
			c-0.8,0-1.6,0.2-2.4,0.3C89.2,18,88.3,18,88,18.5C87.7,18.8,87.7,19.4,88.1,19.6z M85.7,23.4c0.1,0.8,0.7,1.4,1.5,1.6
			c0.3,0.1,0.3,0.1,0.3,0.1c0.3,0,1-0.1,1.5-0.1c0,0,0,0,0.3-0.4c0.1-0.1,0.1-0.1,0.1-0.1c0-0.1,0.1-1,0.1-2c0,0,0,0-0.7-0.4
			c0,0,0,0,0,0c0,0-0.4-0.3-0.9-0.7c0,0,0,0-0.6,0.1C86.3,21.6,85.6,22.6,85.7,23.4z M79.2,28.9c2.5-0.2,5.2-0.8,6.4-3.3
			c0.2-0.4,0.2-0.4,0.2-0.4c-0.5,0-0.9,0-0.9,0c0,0,0,0,0,0c-1,0.1-2.1,0.6-3,0.9c-1.2,0.4-2.2,1-3.1,1.9
			C78.5,28.2,78.7,28.9,79.2,28.9z M77.9,22.1c1.8,1.4,4.4,2.3,6.7,1.5c0.1,0,0.1,0,0.1,0c0-0.1,0.3-0.3,0.5-0.5c0,0,0,0-0.1-0.3
			c-0.5-1.1-2-1.6-3.2-1.8c-0.7-0.2-1.5-0.2-2.2-0.1c-0.5,0-1.3-0.1-1.7,0.3C77.6,21.4,77.5,21.9,77.9,22.1z M73.9,25.8
			c0,0.9,0.6,1.5,1.4,1.8c0.3,0.1,0.3,0.1,0.3,0.1c0.4,0,1.1,0,1.6,0c0,0,0,0,0.3-0.4c0.1-0.1,0.1-0.1,0.1-0.1c0-0.1,0.2-1,0.3-2
			c0,0,0,0-0.7-0.5c0,0,0,0,0,0c0,0-0.4-0.4-0.9-0.8c0,0,0,0-0.6,0.1C74.7,24,73.8,25,73.9,25.8z M67,31c2.6-0.1,5.2-0.4,6.6-2.8
			c0.2-0.4,0.2-0.4,0.2-0.4c-0.5,0-0.9-0.1-0.9-0.1c0,0,0,0,0,0c-1,0-2.1,0.4-3.1,0.7c-1.2,0.3-2.3,0.8-3.2,1.7
			C66.4,30.3,66.5,31,67,31z M66.1,24.2c1.7,1.5,4.2,2.6,6.6,2c0.1,0,0.1,0,0.1,0c0,0,0.3-0.3,0.5-0.5c0,0,0,0-0.1-0.3
			c-0.5-1.1-1.9-1.7-3.1-2c-0.7-0.2-1.4-0.2-2.2-0.3c-0.5,0-1.3-0.2-1.7,0.1C65.9,23.4,65.8,23.9,66.1,24.2z M62.8,26.9
			c-0.1,0.7,0.3,1.2,0.8,1.5c0.2,0.1,0.2,0.1,0.2,0.1c0.3,0.1,0.8,0.2,1.2,0.2c0,0,0,0,0.3-0.3c0.1-0.1,0.1-0.1,0.1-0.1
			c0-0.1,0.3-0.8,0.5-1.5c0,0,0,0-0.5-0.5c0,0,0,0,0,0c0,0-0.3-0.3-0.6-0.7c0,0,0,0-0.5,0C63.6,25.6,62.8,26.3,62.8,26.9z
			 M55.3,30.7c2.5,0.4,5.2,0.5,7-1.6c0.3-0.4,0.3-0.4,0.3-0.4c-0.5-0.1-0.9-0.3-0.9-0.3c0,0,0,0,0,0c-1-0.1-2.1,0-3.1,0.1
			c-1.2,0.1-2.4,0.4-3.5,1.1C54.8,29.9,54.8,30.6,55.3,30.7z M55.7,23.9c1.4,1.8,3.7,3.3,6.1,3.1c0.1,0,0.1,0,0.1,0
			c0,0,0.3-0.2,0.6-0.4c0,0,0,0-0.1-0.3c-0.3-1.2-1.6-2-2.6-2.5c-0.7-0.3-1.4-0.5-2.1-0.7c-0.5-0.1-1.2-0.4-1.7-0.2
			C55.6,23.1,55.4,23.5,55.7,23.9z M51.6,26.1c-0.2,0.8,0.2,1.5,0.8,2c0.2,0.2,0.2,0.2,0.2,0.2c0.3,0.1,1,0.3,1.4,0.4
			c0,0,0,0,0.4-0.3c0.1-0.1,0.1-0.1,0.1-0.1c0.1-0.1,0.4-0.9,0.8-1.8c0,0,0,0-0.5-0.6c0,0,0,0,0,0c0,0-0.3-0.4-0.6-0.9
			c0,0,0,0-0.6-0.1C52.8,24.7,51.7,25.4,51.6,26.1z M43.7,29.1c2.5,0.6,5.1,1,7.1-0.9c0.4-0.3,0.4-0.3,0.4-0.3
			c-0.4-0.2-0.8-0.3-0.9-0.3c0,0,0,0,0,0c-1-0.2-2.1-0.2-3.1-0.2c-1.2,0-2.4,0.2-3.5,0.8C43.2,28.3,43.2,29,43.7,29.1z M44.7,22.4
			c1.3,2,3.4,3.7,5.8,3.7c0.1,0,0.1,0,0.1,0c0.1,0,0.3-0.2,0.6-0.3c0,0,0,0,0-0.3c-0.1-1.2-1.4-2.2-2.4-2.8c-0.6-0.4-1.3-0.6-2-0.9
			c-0.5-0.2-1.2-0.5-1.7-0.3C44.7,21.6,44.4,22,44.7,22.4z M41.2,24.4c-0.2,0.6,0,1.2,0.5,1.7c0.2,0.2,0.2,0.2,0.2,0.2
			c0.3,0.1,0.8,0.3,1.1,0.5c0,0,0,0,0.4-0.2c0.1,0,0.1,0,0.1,0c0.1-0.1,0.4-0.7,0.8-1.4c0,0,0,0-0.4-0.6c0,0,0,0,0,0
			c0,0-0.2-0.4-0.4-0.8c0,0,0,0-0.5-0.1C42.4,23.3,41.5,23.8,41.2,24.4z M33.1,26.4c2.4,1,5,1.7,7.2,0c0.4-0.3,0.4-0.3,0.4-0.3
			c-0.4-0.2-0.8-0.4-0.8-0.5c0,0,0,0,0,0c-0.9-0.4-2.1-0.4-3.1-0.6c-1.2-0.2-2.4-0.1-3.6,0.3C32.8,25.5,32.7,26.2,33.1,26.4z
			 M35,19.8c1,2.1,2.9,4.1,5.3,4.4c0.1,0,0.1,0,0.1,0c0.1,0,0.4-0.1,0.7-0.2c0,0,0,0,0-0.3c0-1.2-1.1-2.3-2-3.1
			c-0.6-0.5-1.2-0.8-1.9-1.1c-0.5-0.2-1.1-0.7-1.7-0.6C35.1,19,34.8,19.4,35,19.8z M31.1,21.1c-0.3,0.7-0.1,1.4,0.4,2
			c0.2,0.2,0.2,0.2,0.2,0.2c0.3,0.2,0.9,0.4,1.3,0.6c0,0,0,0,0.4-0.2c0.1,0,0.1,0,0.1,0c0.1-0.1,0.5-0.8,1-1.5c0,0,0,0-0.4-0.7
			c0,0,0,0,0,0c0,0-0.2-0.5-0.4-1c0,0,0,0-0.5-0.2C32.5,19.9,31.4,20.4,31.1,21.1z M22.9,22.6c2.3,1.1,4.9,1.9,7.2,0.4
			c0.4-0.3,0.4-0.3,0.4-0.3c-0.4-0.3-0.8-0.5-0.8-0.5c0,0,0,0,0,0c-0.9-0.4-2.1-0.5-3-0.7c-1.2-0.2-2.4-0.3-3.6,0.1
			C22.6,21.8,22.4,22.4,22.9,22.6z M25.1,16.2c0.9,2.2,2.6,4.2,5.1,4.7c0.1,0,0.1,0,0.1,0c0.1,0,0.4-0.1,0.7-0.2c0,0,0,0,0-0.3
			c0.1-1.2-1-2.4-1.8-3.2c-0.5-0.5-1.2-0.9-1.8-1.2c-0.4-0.2-1.1-0.7-1.6-0.6C25.2,15.4,24.9,15.7,25.1,16.2z M21.9,16.9
			c-0.3,0.5-0.2,1,0,1.5c0.1,0.2,0.1,0.2,0.1,0.2c0.2,0.2,0.6,0.4,0.8,0.6c0,0,0,0,0.3-0.1c0.1,0,0.1,0,0.1,0c0.1,0,0.5-0.5,0.9-1
			c0,0,0,0-0.2-0.5c0,0,0,0,0,0c0,0-0.1-0.3-0.2-0.8c0,0,0,0-0.4-0.2C23.1,16.3,22.2,16.5,21.9,16.9z M14.9,16.9
			c1.7,1.3,3.7,2.4,5.9,1.5c0.4-0.2,0.4-0.2,0.4-0.2c-0.3-0.3-0.5-0.5-0.6-0.5c0,0,0,0,0,0c-0.7-0.5-1.6-0.8-2.4-1.1
			c-1-0.4-2-0.6-3-0.5C14.8,16.1,14.6,16.7,14.9,16.9z M17.8,11.9c0.4,1.9,1.5,3.9,3.4,4.7c0.1,0,0.1,0,0.1,0c0.1,0,0.3,0,0.6-0.1
			c0,0,0,0,0.1-0.2c0.3-1-0.4-2.1-1-2.9c-0.4-0.5-0.8-0.9-1.3-1.3c-0.3-0.3-0.8-0.8-1.2-0.8C18,11.3,17.7,11.6,17.8,11.9z
			 M14.4,12.3c-0.3,0.4-0.3,0.9,0,1.4c0.1,0.2,0.1,0.2,0.1,0.2c0.2,0.2,0.5,0.4,0.8,0.6c0,0,0,0,0.3-0.1c0.1,0,0.1,0,0.1,0
			c0.1,0,0.5-0.4,0.9-0.9c0,0,0,0-0.2-0.5c0,0,0,0,0,0c0,0-0.1-0.3-0.1-0.7c0,0,0,0-0.3-0.2C15.5,11.8,14.7,11.9,14.4,12.3z M7.9,12
			c1.6,1.3,3.4,2.4,5.4,1.6c0.4-0.1,0.4-0.1,0.4-0.1c-0.3-0.3-0.5-0.5-0.5-0.5c0,0,0,0,0,0c-0.6-0.5-1.5-0.8-2.2-1.1
			c-0.9-0.4-1.8-0.6-2.8-0.6C7.8,11.3,7.6,11.7,7.9,12z M10.8,7.5c0.3,1.8,1.2,3.7,3,4.5c0,0,0,0,0,0c0,0,0.3,0,0.6,0
			c0,0,0,0,0.1-0.2c0.3-0.9-0.3-2-0.8-2.8c-0.3-0.5-0.7-0.9-1.2-1.3c-0.3-0.3-0.7-0.8-1.1-0.8C11,6.9,10.7,7.1,10.8,7.5z M8.3,7.5
			C8,7.8,8.1,8.2,8.3,8.6c0.1,0.1,0.1,0.1,0.1,0.1C8.4,8.8,8.7,9,8.9,9.2c0,0,0,0,0.2-0.1c0,0,0,0,0,0c0,0,0.4-0.3,0.7-0.7
			c0,0,0,0-0.1-0.4c0,0,0,0,0,0c0,0,0-0.3-0.1-0.6c0,0,0,0-0.3-0.2C9.1,7.1,8.5,7.2,8.3,7.5z M3.2,7.2c1.2,1,2.6,1.9,4.2,1.3
			c0.3-0.1,0.3-0.1,0.3-0.1C7.5,8.2,7.3,8,7.3,8c0,0,0,0,0,0C6.8,7.6,6.1,7.4,5.6,7.1C4.9,6.8,4.1,6.6,3.4,6.7
			C3.1,6.7,2.9,7,3.2,7.2z M5.4,3.7c0.2,1.4,1,2.9,2.3,3.5c0,0,0,0,0,0c0,0,0.2,0,0.4,0c0,0,0,0,0.1-0.2c0.2-0.7-0.2-1.6-0.6-2.2
			c-0.2-0.4-0.6-0.7-0.9-1C6.5,3.7,6.2,3.3,5.9,3.3C5.6,3.3,5.4,3.4,5.4,3.7z M127.9,11.6c-0.5-0.3-0.5-0.3-0.5-0.3
			c-0.5,0.2-0.9,0.3-1,0.3c0,0,0,0,0,0c-0.7,0.1-0.7,0.1-0.7,0.1c-0.2,0.8-0.5,1.6-0.5,1.7c0,0,0,0,0,0.1c0.1,0.5,0.1,0.5,0.1,0.5
			c0.4,0.2,0.9,0.4,1.2,0.5c0,0,0,0,0.3,0c0.7,0,1.4-0.3,1.7-0.9C128.8,13,128.5,12,127.9,11.6z M133.9,20.7c-0.6-1.2-1.5-2.2-2.5-3
			c-0.9-0.7-1.8-1.5-2.8-2c0,0,0,0,0,0c0,0-0.5-0.1-1-0.3c0,0,0,0,0.1,0.5c0.4,3,2.9,4.5,5.5,5.6C133.6,21.8,134.1,21.1,133.9,20.7z
			 M137.2,14c-0.3-0.5-1.2-0.7-1.7-0.9c-0.7-0.3-1.5-0.5-2.3-0.6c-1.3-0.1-3-0.2-3.9,0.8c-0.2,0.2-0.2,0.2-0.2,0.2
			c0.2,0.3,0.3,0.6,0.3,0.7c0,0,0,0,0.1,0c2.1,1.7,5.1,1.6,7.5,0.8C137.3,14.9,137.4,14.3,137.2,14z M137.5,17.5
			c-0.5-0.2-0.5-0.2-0.5-0.2c-0.5,0.2-0.9,0.4-0.9,0.4c0,0,0,0,0,0c-0.7,0.2-0.7,0.2-0.7,0.2c-0.1,0.9-0.3,1.6-0.3,1.7
			c0,0,0,0,0,0.1c0.1,0.4,0.1,0.4,0.1,0.4c0.4,0.2,1,0.3,1.3,0.4c0,0,0,0,0.3,0c0.7-0.1,1.3-0.4,1.6-1.1
			C138.6,18.8,138.1,17.8,137.5,17.5z M144.5,25.8c-0.7-1.2-1.7-2-2.9-2.7c-0.9-0.6-2-1.3-3-1.6c0,0,0,0,0,0c0,0-0.5-0.1-1-0.2
			c0,0,0,0,0.1,0.5c0.8,2.9,3.5,4.1,6.1,4.9C144.4,26.9,144.8,26.3,144.5,25.8z M147,18.8c-0.4-0.5-1.2-0.5-1.8-0.7
			c-0.8-0.2-1.6-0.3-2.4-0.3c-1.3,0-3,0.2-3.8,1.2c-0.2,0.3-0.2,0.3-0.2,0.3c0.2,0.3,0.4,0.6,0.4,0.7c0,0,0,0,0.1,0
			c2.3,1.4,5.2,1,7.5-0.1C147.2,19.6,147.3,19.1,147,18.8z M147.9,21.7c-0.6-0.1-0.6-0.1-0.6-0.1c-0.5,0.4-0.9,0.7-0.9,0.7
			c0,0,0,0,0,0c-0.7,0.4-0.7,0.4-0.7,0.4c0,1,0.1,1.9,0.1,2c0,0,0,0,0.1,0.1c0.3,0.4,0.3,0.4,0.3,0.4c0.5,0.1,1.2,0.1,1.5,0.1
			c0,0,0,0,0.3-0.1c0.8-0.3,1.4-0.8,1.5-1.6C149.4,22.9,148.6,21.9,147.9,21.7z M156.1,28.2c-0.8-0.9-1.9-1.5-3.1-1.9
			c-0.9-0.3-2-0.8-3-0.9c0,0,0,0,0,0c0,0-0.4,0-0.9,0c0,0,0,0,0.2,0.4c1.2,2.5,3.9,3,6.4,3.3C156.3,29.2,156.4,28.5,156.1,28.2z
			 M157,21.4c-0.4-0.4-1.2-0.2-1.7-0.3c-0.7,0-1.5,0-2.2,0.1c-1.1,0.2-2.6,0.7-3.2,1.8c-0.1,0.3-0.1,0.3-0.1,0.3
			c0.2,0.2,0.5,0.5,0.5,0.5c0,0,0,0,0.1,0c2.3,0.8,4.9-0.1,6.7-1.5C157.4,22.1,157.3,21.7,157,21.4z M159.4,24.2
			c-0.6-0.1-0.6-0.1-0.6-0.1c-0.5,0.4-0.9,0.8-0.9,0.8c0,0,0,0,0,0c-0.7,0.5-0.7,0.5-0.7,0.5c0.1,1,0.2,1.9,0.3,2c0,0,0,0,0.1,0.1
			c0.3,0.4,0.3,0.4,0.3,0.4c0.5,0,1.2,0.1,1.6,0c0,0,0,0,0.3-0.1c0.8-0.3,1.4-0.9,1.4-1.8C161.1,25.3,160.3,24.3,159.4,24.2z
			 M168.3,30.3c-0.9-0.8-2-1.4-3.2-1.7c-1-0.3-2-0.7-3.1-0.7c0,0,0,0,0,0c0,0-0.4,0.1-0.9,0.1c0,0,0,0,0.2,0.4
			c1.4,2.4,4.1,2.8,6.6,2.8C168.5,31.3,168.6,30.6,168.3,30.3z M168.7,23.5c-0.4-0.3-1.2-0.2-1.7-0.1c-0.7,0-1.5,0.1-2.2,0.3
			c-1.1,0.3-2.6,0.9-3.1,2c-0.1,0.3-0.1,0.3-0.1,0.3c0.2,0.2,0.5,0.4,0.5,0.5c0,0,0,0,0.1,0c2.4,0.7,4.8-0.4,6.6-2
			C169.1,24.2,169,23.7,168.7,23.5z M170.7,25.9c-0.5,0-0.5,0-0.5,0c-0.3,0.4-0.6,0.7-0.6,0.7c0,0,0,0,0,0c-0.5,0.5-0.5,0.5-0.5,0.5
			c0.2,0.8,0.4,1.4,0.5,1.5c0,0,0,0,0.1,0.1c0.3,0.3,0.3,0.3,0.3,0.3c0.4,0,0.9-0.1,1.2-0.2c0,0,0,0,0.2-0.1
			c0.6-0.4,0.9-0.9,0.8-1.5C172.1,26.6,171.3,25.9,170.7,25.9z M179.8,30c-1-0.7-2.2-1-3.5-1.1c-1-0.1-2.1-0.3-3.1-0.1c0,0,0,0,0,0
			c0,0-0.4,0.1-0.9,0.3c0,0,0,0,0.3,0.4c1.8,2.1,4.5,2,7,1.6C180.2,30.9,180.2,30.2,179.8,30z M179,23.2c-0.5-0.2-1.2,0.1-1.7,0.2
			c-0.7,0.2-1.4,0.4-2.1,0.7c-1,0.5-2.4,1.3-2.6,2.5c-0.1,0.3-0.1,0.3-0.1,0.3c0.3,0.2,0.6,0.3,0.6,0.4c0,0,0,0,0.1,0
			c2.4,0.2,4.7-1.3,6.1-3.1C179.6,23.8,179.3,23.3,179,23.2z M181.4,25.1c-0.6,0.1-0.6,0.1-0.6,0.1c-0.3,0.5-0.6,0.9-0.6,0.9
			c0,0,0,0,0,0c-0.5,0.6-0.5,0.6-0.5,0.6c0.4,0.9,0.7,1.7,0.8,1.8c0,0,0,0,0.1,0.1c0.4,0.3,0.4,0.3,0.4,0.3c0.5-0.1,1.1-0.3,1.4-0.4
			c0,0,0,0,0.2-0.2c0.6-0.5,1-1.2,0.8-2C183.2,25.6,182.2,24.9,181.4,25.1z M191.3,28.4c-1.1-0.6-2.3-0.8-3.5-0.8
			c-1,0-2.1-0.1-3.1,0.2c0,0,0,0,0,0c0,0-0.4,0.2-0.9,0.3c0,0,0,0,0.4,0.3c2,1.9,4.7,1.6,7.1,0.9C191.8,29.3,191.7,28.6,191.3,28.4z
			 M189.9,21.7c-0.5-0.2-1.2,0.2-1.7,0.3c-0.7,0.2-1.4,0.5-2,0.9c-1,0.6-2.2,1.6-2.4,2.8c0,0.3,0,0.3,0,0.3c0.3,0.1,0.6,0.3,0.6,0.3
			c0,0,0,0,0.1,0c2.4,0,4.5-1.7,5.8-3.7C190.5,22.3,190.2,21.8,189.9,21.7z M192,23.7c-0.5,0.1-0.5,0.1-0.5,0.1
			c-0.2,0.4-0.4,0.8-0.4,0.8c0,0,0,0,0,0c-0.4,0.6-0.4,0.6-0.4,0.6c0.4,0.7,0.7,1.3,0.8,1.4c0,0,0,0,0.1,0c0.4,0.2,0.4,0.2,0.4,0.2
			c0.4-0.1,0.9-0.3,1.1-0.5c0,0,0,0,0.2-0.2c0.5-0.5,0.7-1.1,0.5-1.7C193.5,24,192.6,23.6,192,23.7z M201.7,25.6
			c-1.2-0.4-2.4-0.4-3.6-0.3c-1,0.1-2.1,0.2-3.1,0.6c0,0,0,0,0,0c0,0-0.4,0.2-0.8,0.5c0,0,0,0,0.4,0.3c2.2,1.7,4.8,1,7.2,0
			C202.3,26.5,202.1,25.8,201.7,25.6z M199.4,19.2c-0.5-0.1-1.2,0.3-1.7,0.5c-0.6,0.3-1.3,0.7-1.9,1.1c-0.9,0.7-2,1.8-2,3.1
			c0,0.3,0,0.3,0,0.3c0.3,0.1,0.6,0.2,0.7,0.2c0,0,0,0,0.1,0c2.4-0.3,4.3-2.3,5.3-4.4C200.1,19.7,199.8,19.3,199.4,19.2z
			 M201.7,20.4c-0.5,0.2-0.5,0.2-0.5,0.2c-0.2,0.5-0.4,1-0.4,1c0,0,0,0,0,0c-0.4,0.7-0.4,0.7-0.4,0.7c0.5,0.8,0.9,1.5,1,1.5
			c0,0,0,0,0.1,0c0.4,0.2,0.4,0.2,0.4,0.2c0.4-0.2,1-0.4,1.3-0.6c0,0,0,0,0.2-0.2c0.5-0.6,0.7-1.3,0.4-2
			C203.5,20.7,202.4,20.2,201.7,20.4z M212,21.9c-1.2-0.4-2.4-0.3-3.6-0.1c-1,0.2-2.1,0.3-3,0.7c0,0,0,0,0,0c0,0-0.4,0.2-0.8,0.5
			c0,0,0,0,0.4,0.3c2.3,1.5,4.9,0.7,7.2-0.4C212.6,22.7,212.4,22,212,21.9z M209.3,15.6c-0.5-0.1-1.2,0.4-1.6,0.6
			c-0.6,0.4-1.3,0.7-1.8,1.2c-0.9,0.8-1.9,1.9-1.8,3.2c0,0.3,0,0.3,0,0.3c0.3,0.1,0.6,0.2,0.7,0.2c0,0,0,0,0.1,0
			c2.4-0.4,4.2-2.5,5.1-4.7C210,16,209.7,15.6,209.3,15.6z M211.4,16.8c-0.4,0.2-0.4,0.2-0.4,0.2c-0.1,0.4-0.2,0.7-0.2,0.8
			c0,0,0,0,0,0c-0.2,0.5-0.2,0.5-0.2,0.5c0.5,0.5,0.9,0.9,0.9,1c0,0,0,0,0.1,0c0.3,0.1,0.3,0.1,0.3,0.1c0.3-0.2,0.7-0.4,0.8-0.6
			c0,0,0,0,0.1-0.2c0.3-0.5,0.4-1,0-1.5C212.7,16.7,211.9,16.5,211.4,16.8z M219.8,16.4c-1-0.1-2,0.1-3,0.5
			c-0.8,0.3-1.7,0.6-2.4,1.1c0,0,0,0,0,0c0,0-0.3,0.3-0.6,0.5c0,0,0,0,0.4,0.2c2.1,0.9,4.1-0.2,5.9-1.5
			C220.4,16.9,220.1,16.4,219.8,16.4z M216.6,11.6c-0.5,0-0.9,0.5-1.2,0.8c-0.5,0.4-0.9,0.8-1.3,1.3c-0.6,0.8-1.3,1.9-1,2.9
			c0.1,0.2,0.1,0.2,0.1,0.2c0.3,0,0.5,0,0.6,0.1c0,0,0,0,0.1,0c1.9-0.7,3-2.7,3.4-4.7C217.2,11.8,216.9,11.6,216.6,11.6z M219,12.3
			c-0.3,0.2-0.3,0.2-0.3,0.2c-0.1,0.4-0.1,0.7-0.1,0.7c0,0,0,0,0,0c-0.2,0.5-0.2,0.5-0.2,0.5c0.4,0.4,0.9,0.8,0.9,0.9c0,0,0,0,0.1,0
			c0.3,0.1,0.3,0.1,0.3,0.1c0.3-0.2,0.6-0.4,0.8-0.6c0,0,0,0,0.1-0.2c0.2-0.5,0.3-1,0-1.4C220.2,12.2,219.4,12,219,12.3z
			 M226.8,11.5c-1-0.1-1.9,0.2-2.8,0.6c-0.7,0.3-1.6,0.6-2.2,1.1c0,0,0,0,0,0c0,0-0.2,0.2-0.5,0.5c0,0,0,0,0.4,0.1
			c2.1,0.7,3.9-0.4,5.4-1.6C227.4,12,227.1,11.5,226.8,11.5z M223.6,7.2c-0.4,0-0.8,0.5-1.1,0.8c-0.4,0.4-0.8,0.8-1.2,1.3
			c-0.5,0.8-1.1,1.8-0.8,2.8c0.1,0.2,0.1,0.2,0.1,0.2c0.3,0,0.5,0,0.6,0c0,0,0,0,0,0c1.8-0.8,2.7-2.7,3-4.5
			C224.2,7.4,223.9,7.2,223.6,7.2z M225.5,7.6c-0.3,0.2-0.3,0.2-0.3,0.2c0,0.3-0.1,0.5-0.1,0.6c0,0,0,0,0,0C225,8.7,225,8.7,225,8.7
			c0.3,0.3,0.7,0.6,0.7,0.7c0,0,0,0,0,0c0.2,0.1,0.2,0.1,0.2,0.1c0.2-0.1,0.5-0.3,0.6-0.5c0,0,0,0,0.1-0.1c0.2-0.4,0.2-0.7,0-1.1
			C226.4,7.4,225.8,7.3,225.5,7.6z M231.6,6.9c-0.8,0-1.5,0.2-2.2,0.5c-0.6,0.2-1.2,0.5-1.7,0.9c0,0,0,0,0,0c0,0-0.2,0.2-0.4,0.4
			c0,0,0,0,0.3,0.1c1.6,0.6,3-0.3,4.2-1.3C232,7.3,231.8,6.9,231.6,6.9z M229.1,3.5c-0.3,0-0.6,0.4-0.9,0.6c-0.3,0.3-0.7,0.6-0.9,1
			c-0.4,0.6-0.9,1.4-0.6,2.2c0.1,0.2,0.1,0.2,0.1,0.2c0.2,0,0.4,0,0.4,0c0,0,0,0,0,0c1.4-0.6,2.1-2.1,2.3-3.5
			C229.6,3.7,229.3,3.5,229.1,3.5z M119.1,16.6c0.8-0.2,1.2-1.1,1-1.9c-0.1-0.4-0.2-0.9-0.2-1.5c-0.2-1.6-0.4-4.3-3.3-4.9
			c-0.8-0.2-1.6,0.4-1.7,1.2c-0.2,0.8,0.4,1.6,1.2,1.7c0.5,0.1,0.7,0.4,0.8,2.2c0.1,0.7,0.1,1.4,0.3,2.1c0.2,0.6,0.2,0.6,0.2,0.6
			c0.7,0.2,1.4,0.4,1.5,0.4C118.9,16.6,118.9,16.6,119.1,16.6z M118.2,16.3c1.7-2.1,0.9-5-2.2-8.3c-0.2-0.2-0.5-0.4-0.8-0.4
			c-0.7-0.1-1.3,0-1.7,0.4c-0.2,0.2-0.2,0.2-0.2,0.2c-0.1,0.6-0.2,1.6-0.2,2.2c0,0,0,0,0.5,0.4c0.3,0.3,0.3,0.3,0.3,0.3
			c0.4,0,1.2,0.7,1.8,1.6c0,0,0.7,1.1,0.2,1.8c-0.5,0.6-0.4,1.6,0.2,2.1c0.3,0.2,0.3,0.2,0.3,0.2c0.4,0.1,1.1,0,1.5-0.1
			C117.9,16.6,117.9,16.6,118.2,16.3z M120.1,15c0.5-1.5,0.8-3.7-0.1-5.5c-0.5-1-1.3-1.8-2.4-2.1c-0.8-0.3-1.6,0.2-1.9,0.9
			c-0.3,0.8,0.2,1.6,0.9,1.9c0.3,0.1,0.5,0.3,0.7,0.6c0.4,0.8,0.4,2.1,0,3.2c-0.3,0.8,0.1,1.6,0.9,1.9c0.2,0.1,0.2,0.1,0.2,0.1
			c0.2,0,0.9-0.1,1.5-0.4C119.8,15.6,119.8,15.6,120.1,15z M106.6,34.8c3.3-2.1,4.1-6.9,5-11.5c0.8-4.7,1.6-9.2,4.8-10.2
			c0.5-0.2,0.8-0.7,0.6-1.3c-0.2-0.5-0.7-0.8-1.3-0.6c-0.2,0.1-0.2,0.1-0.2,0.1c-0.2,0.1-0.2,0-0.2-0.1c0,0,0,0,0.1-0.1
			c0.2-0.5,0-1.1-0.5-1.3C111,7.9,106,9,101.3,12.8c-5.7,4.6-9.2,11.8-8.1,16.8c0.4,2.1,1.9,4.7,6.1,5.8c1.2,0.3,1.5,0.3,1.5,0.3
			c1,0.1,2.6,0,3.6-0.1C104.4,35.6,105.5,35.5,106.6,34.8z M114.2,11.5c0.2,0.1,0.2,0.1,0.2,0.1c0.2,0-0.1,0.7-0.6,1.5
			c0,0-3.3,5.2-4.2,9.8c-0.7,4.2-1.5,8.5-4.1,10.1c-1.4,0.9-3.3,1-5.8,0.4c-2.6-0.7-4.2-2.1-4.7-4.3c-0.9-4.2,2.4-10.6,7.5-14.8
			c2.8-2.3,6.7-3.1,6.7-3.1c1-0.2,2.6-0.3,3.6-0.2C112.8,11,113.2,11.1,114.2,11.5z M131.4,33.4c1.4-0.2,2.7-1,3.6-2.2
			c3.1-4.2,0.2-10.5-1.2-13c-1.4-2.6-6.9-10.4-12.6-11.1c-2.1-0.3-3.9,0.4-5.5,2.1c-0.4,0.4-0.4,1,0.1,1.4c0.4,0.4,1,0.4,1.4-0.1
			c0.1-0.2,0.1-0.2,0.1-0.2c0.2-0.2,0.3-0.3,0.4-0.3c0,0,0,0,0,0c3.9,0.1,4.7,4.4,5.5,11c0.5,4.5,1,8.8,3.5,10.8
			c1.2,1,2.2,1.2,2.2,1.2c1,0.2,2,0.3,2.2,0.3C131.2,33.4,131.2,33.4,131.4,33.4z M132.1,19.1c0.9,1.7,3.8,7.5,1.3,10.9
			c-0.6,0.8-1.4,1.3-2.3,1.4c-1,0.1-2.1-0.3-3.1-1.1c-1.8-1.5-2.3-5.6-2.8-9.5c-0.5-4.6-3.4-10.2-3.4-10.2c-0.5-0.9-0.2-1.1,0.7-0.6
			C122.5,10.1,130.1,15.4,132.1,19.1z M121.8,70.3c3.5-3,11.3-11,7.2-20.2c-0.5-1.2-1.7-2.5-3-3.9c-0.9-1-1.6-1.9-1.6-1.9
			c-0.6-0.8-0.9-1.5-0.5-1.6c0,0,0,0,0.3-0.1c2.6-1.1,2.7-2.7,2.6-3.4c-0.2-1.3-1.3-2.4-2.7-2.6c-1.5-0.2-2.9,0.7-3.6,2.4
			c-0.3,0.6-0.3,0.6-0.3,0.6c0,0.7,0,1.2-0.1,1.2c0,0,0,0,0,0c-2.4-2.1-1.5-10.3-0.3-15c0.6-2.3,2.2-10.1-0.3-13.1
			c-0.7-0.9-1.8-1.4-3-1.3c-0.6,0-1,0.5-1,1c0,0.6,0.5,1,1,1c0.7,0,1.1,0.2,1.4,0.6c1.4,1.8,1,7-0.1,11.4c-0.3,1.4-3.2,13.4,1,17
			c0.7,0.6,0.7,0.6,0.7,0.6c0.9,0.2,2.1,1,2.7,1.8c0,0,1.1,1.5,2.4,2.9c1.2,1.3,2.3,2.5,2.7,3.4c3.5,7.9-3.5,15.1-6.7,17.8
			c-0.4,0.4-0.5,1-0.1,1.4c0.2,0.2,0.2,0.2,0.2,0.2c0.3,0.1,0.8,0.1,1,0C121.6,70.5,121.6,70.5,121.8,70.3z M123.8,38.6
			c0.5,0.1,1,0.5,1,0.9c0.1,0.4-0.4,0.9-1.4,1.3c-0.4,0.2-0.4,0.2-0.4,0.2c-0.4,0.1-0.8-0.2-0.9-0.8c0,0,0,0,0.2-0.4
			c0.2-0.4,0.2-0.4,0.2-0.4C123.2,38.9,123.7,38.6,123.8,38.6C123.8,38.6,123.8,38.6,123.8,38.6z M117.4,91.5
			c5.3-5.3-1.1-14.8-4.6-19.9c-0.3-0.4-0.6-0.8-0.8-1.2c-3.7-5.7-1.3-14.8-1.3-14.8c0.3-1,1.2-1.5,2.2-1.1c0,0,2.1,0.8,3.4,0.1
			c0.7-0.4,1.8-1.3,1.1-3.8c-0.1-0.2-0.2-0.3-0.3-0.5c-1.7-1.5-3.8-1.5-5.7,0.1c-0.3,0.2-0.3,0.2-0.3,0.2c-0.3,0.3-0.7,0.3-1,0.1
			c0,0,0,0-0.2-0.2c-2.7-3.7,0.6-12.7,0.6-12.7c0.3-0.9,0.7-1.9,0.8-2.2c0.1-0.3,0.5-1.2,0.9-2.1c0,0,0.9-1.9,1.9-3.9
			c3-5.6,6.7-12.5,3.3-18.1c-0.3-0.5-0.9-0.6-1.4-0.3c-0.5,0.3-0.6,0.9-0.3,1.4c2.8,4.6-0.4,10.7-3.3,16.1c-1.1,2.1-2.1,4.1-2.1,4.1
			c-0.4,0.9-0.8,1.9-0.9,2.1c-0.1,0.3-0.5,1.3-0.8,2.2c0,0-3.7,10-0.4,14.6c0.3,0.4,0.3,0.4,0.3,0.4c0.5,0.4,0.7,1.6,0.4,2.5
			c0,0-2.9,10.5,1.3,17c0.2,0.4,0.5,0.7,0.8,1.2c2.9,4.3,9,13.2,4.8,17.3c-0.4,0.4-0.4,1,0,1.4c0.2,0.2,0.2,0.2,0.2,0.2
			c0.3,0.1,0.7,0.1,1,0C117.2,91.7,117.2,91.7,117.4,91.5z M112.8,52c1.4-1.2,1.4-1.2,1.4-1.2c0.8,0.5,1.5,1.3,1.6,1.9
			c0,0,0,0-0.3,0.2c-0.6,0.3-1.3,0-1.3,0c-0.9-0.3-1.6-0.7-1.5-0.8C112.7,52.1,112.7,52.1,112.8,52z M117.7,15.7
			c0.5-0.2,0.8-0.7,0.7-1.3c-0.1-0.4-0.2-0.9-0.2-1.5c-0.1-1.5-0.4-3.8-2.8-4.2c-0.6-0.1-1.1,0.3-1.2,0.8c-0.1,0.5,0.3,1.1,0.8,1.2
			c0.8,0.1,1,0.7,1.1,2.4c0.1,0.6,0.1,1.3,0.3,1.9c0.1,0.4,0.1,0.4,0.1,0.4C117.1,15.6,117.5,15.7,117.7,15.7
			C117.6,15.7,117.6,15.7,117.7,15.7z M116.7,15.5c1.5-1.8,0.7-4.4-2.1-7.3c-0.1-0.1-0.3-0.2-0.5-0.3c-0.2,0-0.8-0.2-1.2,0.3
			c-0.2,0.2-0.2,0.2-0.2,0.2c0,0.4-0.1,1.1-0.1,1.5c0,0,0,0,0.3,0.3c0.3,0.2,0.3,0.2,0.3,0.2c0.4,0,1.1,0.6,1.7,1.4
			c0,0,1,1.5,0.3,2.3c-0.4,0.4-0.3,1.1,0.1,1.4c0.2,0.2,0.2,0.2,0.2,0.2c0.2,0,0.7,0,1,0C116.5,15.8,116.5,15.8,116.7,15.5z
			 M118.4,14.5c0.5-1.3,0.7-3.3-0.1-4.9c-0.4-0.9-1.1-1.5-2-1.8c-0.5-0.2-1.1,0.1-1.3,0.6c-0.2,0.5,0.1,1.1,0.6,1.3
			c0.4,0.1,0.7,0.4,0.9,0.8c0.4,0.8,0.4,2.2,0,3.3c-0.2,0.5,0.1,1.1,0.6,1.3c0.1,0,0.1,0,0.1,0c0.1,0,0.6-0.1,1-0.2
			C118.2,14.9,118.2,14.9,118.4,14.5z"/>
	</g>
</g>
</svg>
