<?xml version="1.0" encoding="utf-8"?>
<!-- Generator: Adobe Illustrator 18.1.1, SVG Export Plug-In . SVG Version: 6.00 Build 0)  -->
<!DOCTYPE svg PUBLIC "-//W3C//DTD SVG 1.1//EN" "http://www.w3.org/Graphics/SVG/1.1/DTD/svg11.dtd">
<svg version="1.1" id="Layer_1" xmlns="http://www.w3.org/2000/svg" xmlns:xlink="http://www.w3.org/1999/xlink" x="0px" y="0px"
	 viewBox="0 0 68.8 38.9" enable-background="new 0 0 68.8 38.9" xml:space="preserve">
<g>
	<linearGradient id="SVGID_1_" gradientUnits="userSpaceOnUse" x1="0.9766" y1="19.1635" x2="67.8156" y2="19.1635">
		<stop  offset="1.226990e-02" style="stop-color:#D8963E"/>
		<stop  offset="1.811923e-02" style="stop-color:#D9973F"/>
		<stop  offset="0.2062" style="stop-color:#EBBF64"/>
		<stop  offset="0.356" style="stop-color:#F6D77B"/>
		<stop  offset="0.4479" style="stop-color:#FAE083"/>
		<stop  offset="0.5406" style="stop-color:#F7DC80"/>
		<stop  offset="0.6403" style="stop-color:#EDCF76"/>
		<stop  offset="0.7434" style="stop-color:#DDB966"/>
		<stop  offset="0.8487" style="stop-color:#C79B50"/>
		<stop  offset="0.9547" style="stop-color:#AB7534"/>
		<stop  offset="1" style="stop-color:#9D6226"/>
	</linearGradient>
	<path fill="url(#SVGID_1_)" d="M60.4,16.5c-3.5-0.8-6.8,1.1-7.1,4.8c-0.2,2.8,2,4.9,4.7,3.3c0.4-0.2,0.1-1-0.3-0.7
		c-1.5,0.8-2.1,0.2-2.7-1.5c-0.4-1.2,0.1-2.6,1.2-3.7c1.8-1.8,4-1.7,6.1-0.8c2.5,1,4.3,3.2,4.7,5.8c0.4,2.6-2.9,5.2-4.9,6.8
		c-4.1,3.2-20.3,6.5-32.1,2.4c-7.1-2.5-12.5-8.4-14.9-9.6c1.6-0.9,3.1-1.8,4.6-2.8c2.3-1.4,4.5-2.9,6.7-4.3c2,1,4.2,1.8,6.5,2.1
		c2.4,0.4,5.7,0,7.9-0.9c2.4-1,4.1-2,5.4-3.7c0.9-1.2,0.5-3.4-0.1-4.8c-0.7-1.6-3.8-2.3-5.2-2.2c-0.8,0.1-1.6,0.5-2.2,0.9
		c-1.3,0.7-2.5,1.4-3.7,2.2c-2.9,1.9-5.8,3.8-8.7,5.8c-4.5-2.3-8.5-6-12-9.4c-2-2-6.6-6.8-9.9-4.6C1.7,3.1,3.3,8.4,6.6,7
		c0.1-0.1,0-0.2-0.1-0.2C3.6,7.9,3.2,4.4,5,2.8c1.4-1.3,3.1-1,4.4-0.1c2.6,1.6,4.6,4,6.8,6c2.8,2.6,6,5.2,9.4,7.1
		c-3.7,2.5-7.5,4.9-11.4,7c-1.2-0.6-2.4-1.2-3.6-1.7c-2.3-1-6.6-2.7-8.7-0.5c-1.4,1.5-1.3,4.8,0.5,6c1.9,1.3,4.9,0.1,6.8-0.6
		c1.7-0.7,3.4-1.5,5-2.4c2.9,1.5,10.3,9.6,19.8,12.1c20.9,5.5,32.2-3,33.6-9.7C68.6,21.2,64.9,17.5,60.4,16.5z M30.5,13.3
		c2.8-1.8,5.5-3.8,8.4-5.3c1.1-0.6,1.8-0.8,3-0.7c1,0.1,2.3,0.3,2.8,1.3c0.5,0.9-0.1,2-0.5,2.7c-1.2,2.1-3.2,3.7-5.2,5
		c-2.5,1.6-5.1,1.7-8,1c-1.4-0.4-2.8-0.9-4.2-1.6C28.1,14.9,29.3,14.1,30.5,13.3z M4.7,26.4c-2.6,0.1-2.8-1.5-1.6-3.7
		c1.7-2.9,6.7-1.2,8.8-0.3c0.5,0.2,1.1,0.5,1.6,0.8C10.8,24.6,7.7,26.3,4.7,26.4z"/>
</g>
</svg>
