<?xml version="1.0" encoding="utf-8"?>
<!-- Generator: Adobe Illustrator 19.1.0, SVG Export Plug-In . SVG Version: 6.00 Build 0)  -->
<!DOCTYPE svg PUBLIC "-//W3C//DTD SVG 1.1//EN" "http://www.w3.org/Graphics/SVG/1.1/DTD/svg11.dtd">
<svg version="1.1" id="Layer_2" xmlns="http://www.w3.org/2000/svg" xmlns:xlink="http://www.w3.org/1999/xlink" x="0px" y="0px"
	 viewBox="-135 127.9 128.8 147.1" enable-background="new -135 127.9 128.8 147.1" xml:space="preserve">
<g>
	<linearGradient id="SVGID_1_" gradientUnits="userSpaceOnUse" x1="-85.6173" y1="199.3156" x2="-85.35" y2="199.3156">
		<stop  offset="0" style="stop-color:#EBBF64"/>
		<stop  offset="0.2776" style="stop-color:#D0B56F"/>
		<stop  offset="0.6403" style="stop-color:#EDCF76"/>
		<stop  offset="0.7434" style="stop-color:#DDB966"/>
		<stop  offset="1" style="stop-color:#C79B50"/>
	</linearGradient>
	<path fill="url(#SVGID_1_)" d="M-85.3,199.4L-85.3,199.4c-0.1,0-0.1-0.1-0.2-0.1C-85.7,199.1-85.4,199.4-85.3,199.4z"/>
	<linearGradient id="SVGID_2_" gradientUnits="userSpaceOnUse" x1="-77.95" y1="206.928" x2="-77.822" y2="206.928">
		<stop  offset="0" style="stop-color:#EBBF64"/>
		<stop  offset="0.2776" style="stop-color:#D0B56F"/>
		<stop  offset="0.6403" style="stop-color:#EDCF76"/>
		<stop  offset="0.7434" style="stop-color:#DDB966"/>
		<stop  offset="1" style="stop-color:#C79B50"/>
	</linearGradient>
	<path fill="url(#SVGID_2_)" d="M-77.8,207c-0.1-0.1-0.1-0.1-0.1-0.2l0,0C-77.9,206.8-77.7,207.2-77.8,207z"/>
	<linearGradient id="SVGID_3_" gradientUnits="userSpaceOnUse" x1="-116.75" y1="187.8999" x2="-13.8407" y2="187.8999">
		<stop  offset="0" style="stop-color:#EBBF64"/>
		<stop  offset="0.2776" style="stop-color:#D0B56F"/>
		<stop  offset="0.6403" style="stop-color:#EDCF76"/>
		<stop  offset="0.7434" style="stop-color:#DDB966"/>
		<stop  offset="1" style="stop-color:#C79B50"/>
	</linearGradient>
	<path fill="url(#SVGID_3_)" d="M-24.7,218c-0.6-0.8-1-1.8-1.1-2.8c0.4,0.1,0.8,0.3,1.3,0.3c3.5,0.5,8-1.1,8.7-5.1
		c0.3-1.6-0.5-3.4-1.5-4.6c-1-1.3-2.6-2.1-4.2-2s-3.7,0.9-4.4,2.6c-0.5,1.3-0.4,3,0.4,4.3c-0.5,0.9-0.8,2-0.8,3c0,0.2,0,0.4,0,0.6
		c-0.8-0.3-1.6-0.7-2.4-1.3c-0.2-0.1-0.3-0.2-0.5-0.4c-0.6-1.2-1.3-2.5-1.7-3.9c-1.1-3.5-1.1-7.3,1.8-9.8c0,0,0-0.2-0.1-0.2
		c-2.3,1.7-3,4.3-2.7,7c0.3,2.2,1,4.2,1.9,6.2c-3.1-2.9-4.7-7.3-2.6-11.3c0.9-1.6,2.2-3.1,3.8-4.1c0.1,0.1,0.2,0.1,0.3,0.2
		c1.7,0.8,3.5,1.6,5.4,1.9c0.4,0.1,0.8,0.1,1.2,0.1c1.1,0,2.6-0.2,3.7-1.4c1-1.1,0.9-2.7-0.1-3.9c-1-1.1-2.4-1.6-4.1-1.6
		c-1.2,0-2.5,0.2-4.2,0.8c-1.5,0.5-2.8,1.1-4.2,1.9c-1.5-0.6-2.8-1.2-4.2-1.6c-2.4-0.8-4.3-1.2-6.1-1.5c0.2-0.7,0.5-1.4,0.7-2
		c2.7,0.9,5.6,1.2,8.4,0.9c0.6-0.1,1.2-0.1,1.9-0.2c6.2-0.6,12.6-4.1,14.1-10.6c0.7-3.3,0.3-6.8-0.7-10c-1-3.3-2.7-6.6-5-9.2
		c-1-1.1-2.1-2-3.3-2.8c0.5-0.2,1.1-0.5,1.7-0.7h0.1c0.8,0.7,1.6,1.3,2.5,1.7c1.1,0.6,2.8,1.3,4,0.9c1.5-0.6,1.3-2.4,0.5-3.4
		c-0.9-1.4-2.7-1.3-4.2-1c-1,0.2-2,0.5-3,0.9c-1.1-1-2.4-2.5-1.9-4c0.6-1.9,2.3-2.8,4.2-3c1.5-0.2,3.2-0.3,4.3-1.4
		c1.3-1.3,2.1-4.4-0.1-5.4c-1.1-0.5-3.1-0.5-3.6,0.8c-0.3,0.7-0.2,2.1,0.6,2.5c0.1,0-0.1,0-0.2-0.2c0.3,0.3,0.6,0.5,0.8,0.4
		c0.3-0.2,0.3-0.7,0.1-1.3c-0.3-0.6-0.7-0.9-1.1-0.7c-0.1,0-0.1,0.1-0.2,0.2c0.1-0.4,0.3-0.8,0.8-1.2c0.6-0.4,1.3-0.5,2.3-0.2
		c1.1,0.3,1.7,1.3,1.4,2.5c-0.3,1-1,1.9-2,2.4c-1.2,0.6-2.6,0.6-3.9,0.8c-2.6,0.4-4.4,2.8-3.7,5.4c0.3,1,0.9,1.9,1.6,2.7
		c-0.7,0.3-1.4,0.6-2.1,0.9c-0.9-0.6-1.8-1.3-2.9-1.6c-1.5-0.5-3.9-0.5-4.9,0.9c-0.7,0.9-0.4,2.3,0.3,3.1c1.3,1.3,3,0.9,4.5,0.2
		c1.1-0.5,2.2-1.1,3.3-1.6c0.9,0.6,1.8,1.1,2.7,1.8c2.8,2.4,4.8,5.8,6,9.4c1.1,3.4,1.7,7.4,0.5,10.9c-1.5,4.7-5.5,7.5-10,8.9
		c1.1-0.7,2.2-1.6,3.1-2.5c2.5-2.6,4-5.8,3.9-9.4c0-0.8-0.1-1.6-0.2-2.4c0.1-0.9,0.8-2.1,2.1-1.1c0,0,1-0.3,0.1-0.9
		c-0.7-0.5-1.9-0.1-2.3,1.1c0,0.1-0.1,0.2-0.1,0.3c-0.2-0.8-0.4-1.6-0.6-2.4c0-0.1,0-0.1-0.1-0.3c-0.6-1.7-1.4-3.3-2.5-4.7
		c-2.4-3.1-6.1-4.9-10-5.4c-2.9-0.4-7.1,0.2-8.6,3.2c-1.3,2.5,0,6.1,3,6.5c1.6,0.2,3.3-0.6,3.8-2.7c0.2-0.7-0.2-1.5-0.9-1.9
		c-0.1-0.3-0.6-0.6-1.2-0.5c-0.6,0-1.1,0.4-1.1,0.7s0.5,0.6,1.2,0.6c0.5,0,0.9-0.2,1-0.5c0.3,0.2,0.6,0.6,0.6,1.1
		c-0.1,1.4-0.7,2.1-1.5,2.4c-1.4,0.6-2.5,0.3-3.4-0.3c-1.1-0.7-1.9-2.1-1.6-3.5c0.2-0.9,0.6-1.6,1.3-2.2c3.7-3.5,10.5-2.1,14.3,0.5
		c1.2,0.8,2.2,1.7,3,2.8c0.1,0.2,0.2,0.2,0.3,0.5c0.6,0.9,1.2,1.9,1.6,2.9c0.1,0.2,0.1,0.3,0.2,0.5c0.4,1.1,0.7,2.2,0.9,3.4
		c0,0.2,0.1,0.4,0.1,0.6c0.1,0.4,0,0.3,0.1,0.9c0.2,3.6-0.9,7-3.5,9.7c-1.1,1.2-2.4,2.5-3.9,3.2s-3.1,1-4.7,1.2
		c-2.7,0.2-5.6,0.1-8.2-0.6c0.2-0.6,0.4-1.1,0.5-1.7l0.1-0.2l0,0c1.4,0.3,3,0.4,4.8,0.2c1.9-0.2,3.8-0.5,5.5-1.8
		c3.2-2.4,4.4-7,2.7-10.3c-1-1.8-2.7-3.1-5-3.6c-0.9-0.2-1.9-0.3-3-0.3c-0.5,0-1,0-1.5,0.1c-2.2,0.2-3.9,0.6-5.2,1.9
		c-1.2,1.2-1.7,2.7-1.5,4.2c0.2,1.6,1,3,2.1,3.8c0.5,0.4,1.1,0.8,1.8,1.1c-0.3,0.6-0.5,1.2-0.7,2c-0.2,0.5-0.3,1-0.5,1.6
		c-1.4-0.4-2.8-0.9-4.2-1.5c-0.4-0.2-0.9-0.3-1.3-0.5c-2.2-0.8-4.5-1.7-7-2.1c-0.2,0-0.3,0-0.5-0.1c0.6-0.1,1.3-0.2,1.9-0.4
		c2-0.5,4.6-2,4.4-4.4c-0.2-2-1.8-4-4-3.8c-0.6,0.1-1.3,0.3-1.8,0.7c0.4-0.5,0.6-1.2,0.7-1.8c0.2-2.2-1.8-3.8-3.8-4
		c-2.5-0.3-3.9,2.3-4.4,4.4c-0.2,0.6-0.3,1.3-0.4,1.9c0-0.2,0-0.3-0.1-0.5c-0.4-2.4-1.2-4.8-2.1-7c-0.2-0.4-0.3-0.9-0.5-1.3
		c-0.5-1.4-1.1-2.8-1.5-4.2c0.5-0.2,1-0.3,1.6-0.5c0.7-0.2,1.4-0.5,2-0.7c0.3,0.6,0.6,1.2,1.1,1.8c0.9,1.1,2.2,1.9,3.8,2.1
		c1.6,0.2,3-0.3,4.2-1.5c1.3-1.3,1.8-3,1.9-5.2c0.1-1.6,0.1-3.1-0.2-4.5c-0.5-2.2-1.8-4-3.6-5c-1-0.5-2.2-0.8-3.4-0.8l0,0
		c-2.7,0-5.4,1.3-6.9,3.5c-1.2,1.7-1.6,3.7-1.8,5.5c-0.2,1.8-0.1,3.4,0.2,4.8l0,0l-0.2,0.1c-0.5,0.2-1.1,0.4-1.7,0.5
		c-0.8-2.6-0.9-5.5-0.6-8.2c0.1-1.6,0.5-3.3,1.2-4.7c0.7-1.5,2-2.8,3.2-3.9c2.7-2.5,6.1-3.7,9.7-3.5c0.2,0,0.5,0,0.9,0.1
		c0.2,0,0.4,0.1,0.6,0.1c1.2,0.2,2.3,0.5,3.4,0.9c0.1,0.1,0.3,0.1,0.5,0.2c1,0.4,2,1,2.9,1.6c0.1,0.1,0.3,0.2,0.5,0.3
		c1.1,0.9,2,1.9,2.8,3c2.5,3.9,4,10.6,0.5,14.3c-0.6,0.6-1.4,1.1-2.2,1.3c-1.4,0.3-2.7-0.4-3.5-1.6c-0.6-1-0.9-2.1-0.3-3.4
		c0.3-0.8,1-1.4,2.4-1.5c0.5,0,0.9,0.2,1.1,0.6c-0.2,0.2-0.4,0.5-0.5,1c0,0.6,0.2,1.2,0.6,1.2c0.3,0,0.7-0.5,0.7-1.1
		s-0.2-1.1-0.5-1.2c-0.3-0.6-1.2-1-1.9-0.9c-2.1,0.4-2.9,2.2-2.7,3.8c0.4,3,4.1,4.3,6.5,3c3-1.5,3.5-5.7,3.2-8.6
		c-0.5-3.8-2.3-7.6-5.4-10c-1.4-1.1-3-1.9-4.7-2.5c-0.2-0.1-0.3-0.1-0.3-0.1c-0.8-0.3-1.6-0.5-2.4-0.6c0.1,0,0.2-0.1,0.3-0.1
		c1.2-0.4,1.6-1.6,1.1-2.3c-0.6-0.7-0.9,0.1-0.9,0.1c1,1.3-0.3,2-1.1,2.1c-0.8-0.1-1.6-0.2-2.4-0.2c-3.6-0.1-6.9,1.4-9.4,3.9
		c-0.9,0.9-1.9,1.9-2.5,3.1c1.4-4.5,4.2-8.4,8.9-10c3.5-1.2,7.5-0.6,10.9,0.5c3.5,1.2,6.9,3.2,9.4,6c0.7,0.8,1.2,1.8,1.8,2.7
		c-0.5,1.1-1.1,2.2-1.6,3.3c-0.7,1.5-1,3.2,0.2,4.5c0.8,0.8,2.2,1,3.1,0.3c1.4-1,1.4-3.4,0.9-4.9c-0.3-1.1-1-1.9-1.6-2.9
		c0.3-0.7,0.6-1.4,0.9-2.1c0.8,0.7,1.7,1.3,2.7,1.6c2.6,0.7,5-1.1,5.4-3.7c0.2-1.3,0.2-2.6,0.8-3.9c0.5-1,1.4-1.7,2.4-2
		c1.2-0.4,2.2,0.2,2.5,1.4c0.3,1,0.2,1.7-0.2,2.3c-0.3,0.5-0.7,0.7-1.2,0.8c0.1,0,0.2-0.1,0.2-0.2c0.2-0.3-0.2-0.8-0.7-1.1
		c-0.6-0.3-1.1-0.2-1.3,0.1c-0.1,0.2,0,0.6,0.4,0.8c-0.2-0.2-0.3-0.3-0.2-0.2c0.4,0.8,1.7,0.9,2.5,0.6c1.3-0.5,1.3-2.5,0.8-3.6
		c-0.9-2.2-4.1-1.3-5.4-0.1c-1.1,1.1-1.2,2.8-1.4,4.3c-0.2,1.9-1.1,3.5-3,4.2c-1.5,0.5-3-0.7-4-1.9c0.4-1,0.7-2,0.9-3
		c0.3-1.5,0.3-3.3-1-4.2c-1.1-0.8-2.9-1-3.4,0.5c-0.5,1.2,0.3,2.9,0.9,4c0.5,0.8,1,1.7,1.7,2.5v0.1c-0.2,0.6-0.5,1.1-0.7,1.7
		c-0.7-1.2-1.7-2.3-2.8-3.3c-2.6-2.4-5.8-4-9.2-5c-3.2-1-6.7-1.4-10-0.7c-6.5,1.4-10,7.9-10.6,14.1c-0.1,0.6-0.2,1.2-0.2,1.9
		c-0.3,2.8,0,5.7,0.9,8.4c-0.7,0.2-1.4,0.5-2,0.7c-0.3-1.8-0.8-3.7-1.5-6.1c-0.4-1.4-0.9-2.7-1.6-4.2c0.8-1.4,1.4-2.7,1.9-4.2
		c0.8-2.5,1.5-6.1-0.9-8.3c-0.6-0.5-1.3-0.8-2.1-0.8c-0.7,0-1.3,0.2-1.8,0.7c-1.6,1.5-1.5,4-1.3,4.9c0.3,1.9,1.1,3.7,1.9,5.4
		c0.1,0.1,0.1,0.3,0.2,0.4c-1,1.5-2.4,2.8-4,3.6c-4,2.2-8.5,0.6-11.3-2.6c2,0.9,4,1.7,6.2,1.9c2.7,0.3,5.3-0.4,7-2.7
		c0,0-0.1-0.1-0.2-0.1c-2.6,2.9-6.4,3-9.8,1.8c-1.4-0.4-2.6-1.1-3.9-1.7c-0.1-0.2-0.3-0.3-0.4-0.5c-0.6-0.8-1-1.5-1.3-2.4
		c0.2,0,0.4,0,0.6,0c1,0,2.1-0.3,3-0.8c1.2,0.8,2.9,1,4.3,0.4c1.6-0.7,2.5-2.7,2.6-4.4c0.1-1.6-0.7-3.2-2-4.2c-1.2-1-3-1.7-4.6-1.5
		c-4,0.6-5.5,5.2-5.1,8.7c0.1,0.4,0.2,0.9,0.3,1.3c-1-0.2-2-0.6-2.8-1.1c-4.5-3.1-7-9.7-13.2-9.9c-2.2,0-4.4,0.7-5.9,2.2
		c-0.9,0.9-1.6,2.4-1.6,3.7c0,1.7,1,2.8,2,3.5c1.6,1.2,4.4,0.9,5.2-1.3c0.4-1-0.4-2.1-1.3-2.4c-0.7-0.2-1.3-0.2-1.8,0.1
		c-0.2,0.1-0.3,0.2-0.4,0.3c-0.3,0.3-0.4,0.8-0.2,1c0.2,0.2,0.6,0.1,1-0.3c0.3-0.3,0.4-0.7,0.3-0.9c0.6-0.1,1.3,0,1.7,0.7
		c0.3,0.4,0.3,1,0.2,1.5c-0.3,1.1-2,1.7-3,1.4c-1.1-0.3-2-1.4-2.4-2.4s-0.2-2.2,0.3-3.1c0.9-1.8,3-2.8,4.9-3.3
		c1.6-0.4,3.1-0.2,4.5,0.6c2.6,1.4,4.4,4.1,6.4,6.2c1.8,2,3.9,3.6,6.5,4c0.3,0.8,0.8,1.6,1.3,2.3c-0.5-0.2-1-0.5-1.5-0.7
		c-2.5-1-6.1-2-8.4,0c-1.8,1.5-2.1,3.9-1.3,6c0.5,1.3,1.6,2,2.9,2.3c1.3,0.2,2.5-0.2,3.3-1.2c0.8-1.2,0.9-2.4-0.3-3.3
		c-0.6-0.4-1.3-0.6-1.9-0.3c-0.1,0-0.3,0.1-0.5,0.2c-0.4,0.3-0.6,0.7-0.4,0.9s0.6,0.2,1-0.1s0.5-0.6,0.4-0.9c0.6,0,1.4,0.2,1.9,1.2
		c0.4,0.8-0.3,2.1-0.9,2.7c-0.9,0.8-2.3,0.9-3.4,0.5c-0.9-0.4-1.4-1.2-1.7-2.1c-0.7-2.3,0.1-4.6,2.1-5.9c2.6-1.6,6-0.1,8.5,1.2
		c0.2,0.1,0.5,0.2,0.7,0.3c0.1,0.1,0.2,0.2,0.2,0.3c1.1,1.3,2.5,2.4,4,3.1c3.5,1.7,7.4,1.5,10.5-1c0.8-0.7,1.5-1.5,2.1-2.3
		c0.2,0.4,0.3,0.8,0.5,1.1l-0.1,0.1c-1.3,2.2-3.2,4.1-5,5.9c-0.6,0.6-1.3,1.3-1.9,1.9c-1,0.6-2.3,0.5-2.6-1.4c0,0-1.4-0.7-1.1,1
		c0.2,1.1,1.4,1.9,2.8,1.5c-0.8,0.9-1.8,2.1-2.7,3.4c-1,0.3-2.2,0.1-2-1.6c0,0-0.9-0.8-1.1,0.5c-0.1,1.1,1,2.1,2.4,1.7
		c0.1,0,0.2-0.1,0.3-0.1c-0.9,1.4-1.6,2.9-2,4.4c0,0.1-0.1,0.3-0.1,0.4c-0.7,0.6-2,1-2.3-0.7c0,0-1-0.5-0.7,0.7
		c0.2,0.9,1.4,1.5,2.4,0.8c0.2-0.2,0.4-0.3,0.5-0.4c-0.3,1.5-0.4,3.1-0.4,5c0,4.2,0.9,9.8,5.1,12.9c1.1,0.8,2.4,1.3,3.7,1.6
		c1,2.7,1.5,5.6,0.5,8.3c-0.8,2.2-2.8,4.2-5.1,4.8c-2.5,0.7-5.1-0.8-5.3-3.5c-0.1-2,1.3-4,3.4-4.1c1.2-0.1,2.4,0.9,2.7,1.9
		c0.2,0.7,0.1,1.7-0.7,2.2c0,0,0,0,0-0.1c0.1-0.4-0.4-0.9-1.1-1c-0.7-0.2-1.4,0-1.5,0.4c-0.1,0.3,0.3,0.7,0.8,0.9H-85
		c1.1,0.6,2.4,0,2.9-1.3c0.5-1.4-0.7-2.7-1.9-3.2c-3.2-1.2-6,2-5.2,5c0.4,1.7,2,2.5,3.5,3c1.7,0.5,3.5,0.1,5-0.8
		c3.7-2.3,4.5-6.8,3.5-10.7c-0.2-0.6-0.4-1.2-0.6-1.8c0.6,0.1,1.2,0.1,1.8,0.1c0.4,0,0.8,0,1.1-0.1c2.8-0.3,5.5-2.4,6.9-4.3
		c1.5-2.1,1.9-4.4,1-6.6c-1-2.4-2.9-3.8-5.1-3.8c0,0-0.1,0-0.2,0c-1.3,0-2.6,0.6-3.3,1.4c-0.6,0.6-0.9,1.4-0.9,2.2s0.4,2,1.5,2.3
		c0.8,0.3,1.5,0.3,2.4-0.2c0.1,0,0.1-0.1,0.2-0.1s0.1-0.1,0.2-0.1h0.1v-0.1l0,0c0.1-0.2,0.2-0.4,0.2-0.5c-0.1-0.4-0.8-0.6-1.5-0.4
		c-0.7,0.2-1.2,0.7-1.1,1.1l0,0c-0.4-0.2-0.7-0.5-0.9-0.9c-0.5-0.9-0.4-1.9,0.2-2.7c0.8-0.9,2.3-1.6,3.6-1.6c0.4,0,0.8,0.1,1.1,0.2
		c1.7,0.6,2.8,2.9,3.1,4.8c0.2,1.8-0.5,3.3-1.2,4.3c-1.4,2.1-4.4,4.3-7.2,4.4c-0.1,0-0.2,0-0.3,0c-0.6,0-1.2-0.1-1.7-0.1
		c-1.5-3.3-3.8-6.1-4.5-9.7c-0.3-1.5-0.4-3.1-0.4-4.7c0-1.9,0.1-4,0.7-5.8c1-3.8,3.7-7,6.4-9.8c0,0-0.1-0.1-0.2-0.1
		c-3.4,2.8-6.4,6.5-7.3,10.9c-0.7,3.6-0.7,7.6,0.4,11.1c0.7,2.2,2.1,4.1,3.2,6.2c0.3,0.5,0.6,1.1,0.8,1.7c-1.6-0.5-3.1-1.4-4.2-2.8
		c-3.2-3.8-3.4-9.6-3-13.7c0.2-2.1,0.7-3.8,1.5-5.5c1.8-3.6,4.6-6.5,7.6-9.4c1.5-1.5,2.7-2.9,3.7-4.3c0.4,0.9,0.7,1.8,1,2.6
		c0.9,2.7,1.4,4.9,1.7,7c-4,1.6-5.9,3.6-5.5,6.1c0.2,1.6,1.7,2.9,3.4,2.9c0.3,0,0.6,0,0.9-0.1c2-0.6,2.9-2.9,2.7-6.6
		c0-0.6-0.1-1.2-0.2-1.8c0.2-0.1,0.4-0.1,0.6-0.2c0.5-0.2,1.1-0.4,1.6-0.6c0.2,0.5,0.4,1,0.7,1.5c-0.1,0.5-0.2,1.4,0,1.8
		c0.2,0.4,2.4,4.1,2.4,4.1s-0.6-4.4-0.8-4.9c-0.2-0.4-1.4-1.2-1.5-1.3c-0.2-0.4-0.4-0.9-0.5-1.3c0.6-0.2,1.2-0.4,1.8-0.6
		c0.4,1.2,0.8,2.5,1.3,3.6c0.1,0.2,0.2,0.4,0.3,0.6l0.1,0.1c1.3,3.3,2.6,6.8,2.5,10.4c-0.1,3.4-0.8,6.8-2.7,9
		c2.3-2.3,3.7-5.8,3.8-9.2c0.1-0.3,0.1-0.7,0.2-1c0.4-1.8,0.6-3.6,1.6-5.1c0.5-0.8,1.3-1.5,2.3-1.8c1.2-0.3,2.6,0.5,3.3,1.5
		s0.8,1.6,0.7,2.6c-0.1,1.1-1.1,2.1-2.3,2.1c0.2-0.3,0.1-0.8-0.3-1.2c-0.4-0.5-1-0.7-1.2-0.4c-0.3,0.2-0.1,0.8,0.3,1.3l0,0
		c0.4,0.6,1.2,0.7,1.9,0.6c0.4-0.1,0.7-0.2,0.9-0.5c-0.2,0.3-0.4,0.6-0.5,0.9c-0.2,0.7,0,1.5,0.6,1.9l0,0c0.5,0.4,1,0.5,1.3,0.3
		c0.2-0.3,0-0.8-0.4-1.2s-1-0.5-1.2-0.3c-0.1-1.1,0.9-2.2,2.1-2.3c0.9,0,1.6,0,2.6,0.7s1.8,2.1,1.5,3.3c-0.3,1-1,1.8-1.8,2.3
		c-1.6,1-3.3,1.2-5.1,1.6c-0.3,0.1-0.7,0.1-1,0.2c-3.5,0.1-6.8,1.5-9.1,3.9c2.2-1.9,5.5-2.7,9-2.8c3.6-0.1,7.1,1.2,10.4,2.5l0.1,0.1
		c0.2,0.1,0.4,0.2,0.6,0.3c1.2,0.5,2.4,0.9,3.6,1.3c-0.2,0.6-0.4,1.2-0.6,1.8c-0.5-0.2-1-0.4-1.5-0.6c0.2,0,0.3,0,0.3,0
		s-0.8-1.3-1.3-1.6c-0.4-0.2-4.9-0.8-4.9-0.8s3.6,2.2,4.1,2.4c0.3,0.1,1,0.1,1.5,0c0,0,0,0,0.1,0c0.5,0.3,1.1,0.5,1.7,0.8
		c-0.2,0.5-0.4,1.1-0.6,1.6c-0.1,0.2-0.1,0.4-0.2,0.6c-0.6-0.1-1.2-0.1-1.8-0.2c-0.3,0-0.7,0-1,0c-3.1,0-5,0.9-5.6,2.7
		c-0.3,0.9-0.1,1.9,0.4,2.7c0.6,0.9,1.4,1.4,2.3,1.6c0.2,0,0.4,0,0.5,0c2.2,0,4.1-1.8,5.6-5.6c2.1,0.3,4.3,0.8,7,1.7
		c0.8,0.3,1.7,0.6,2.6,1c-1.5,1-2.9,2.2-4.3,3.7c-2.9,2.9-5.7,5.7-9.4,7.6c-1.7,0.9-3.4,1.3-5.5,1.5c-1,0.1-2,0.1-3,0.1
		c-4.6,0-8.2-1-10.7-3.1c-1.4-1.1-2.3-2.5-2.8-4.2c0.6,0.3,1.2,0.5,1.7,0.8c2,1.1,3.9,2.5,6.2,3.2c3.5,1.1,7.5,1.1,11.1,0.4
		c4.4-0.8,8.1-3.9,10.9-7.3c0,0,0-0.2-0.1-0.2c-2.8,2.7-6,5.3-9.8,6.4c-1.9,0.5-3.9,0.6-5.8,0.7c-1.6,0-3.1-0.1-4.7-0.4
		c-3.6-0.7-6.5-3-9.7-4.5c-0.1-0.6-0.2-1.3-0.1-2c0.1-2.8,2.3-5.8,4.4-7.2c1.4-1,2.9-1.4,4.3-1.2c1.9,0.2,4.2,1.4,4.8,3.1
		c0.5,1.5-0.1,3.6-1.4,4.7c-0.7,0.6-1.7,0.7-2.7,0.2c-0.4-0.2-0.7-0.5-0.9-0.9l0,0c0.4,0.1,0.9-0.4,1.1-1.1c0.2-0.7,0-1.4-0.4-1.5
		c-0.2,0-0.4,0-0.5,0.2l0,0l0,0l0,0h-0.1l0,0c0,0.1-0.1,0.1-0.1,0.2c0,0.1-0.1,0.1-0.1,0.2c-0.4,0.8-0.5,1.6-0.2,2.4
		c0.4,1.1,1.5,1.5,2.3,1.5c2.3,0.1,3.6-2.1,3.6-4.2c0.1-2.2-1.4-4.3-3.8-5.3c-0.8-0.3-1.6-0.5-2.4-0.5c-1.4,0-2.9,0.5-4.2,1.5
		c-1.9,1.4-4,4.1-4.3,6.9c-0.1,1-0.1,2,0.1,2.9c-0.6-0.2-1.2-0.4-1.8-0.6c-3.9-1-8.4-0.2-10.7,3.5c-0.9,1.5-1.3,3.3-0.8,5
		c0.4,1.5,1.3,3.1,3,3.5c3,0.7,6.3-2.1,5-5.2c-0.5-1.2-1.8-2.4-3.2-1.9c-1.2,0.5-1.9,1.7-1.3,2.9v-0.1c0.2,0.5,0.6,0.9,0.9,0.8
		c0.4-0.1,0.6-0.8,0.4-1.5s-0.6-1.2-1-1.1c0,0,0,0-0.1,0c0.5-0.7,1.5-0.9,2.2-0.7c1.1,0.3,2,1.6,1.9,2.7c-0.2,2.1-2.1,3.5-4.1,3.4
		c-2.7-0.1-4.2-2.8-3.5-5.3c0.7-2.3,2.6-4.2,4.8-5.1c2.7-1,5.6-0.6,8.3,0.5c0.3,1.4,0.9,2.7,1.6,3.7c3,4.2,8.7,5.1,12.9,5.1
		c2,0,3.6-0.1,5.1-0.5c-0.1,0.1-0.2,0.3-0.4,0.5c-0.7,1.1-0.1,2.2,0.8,2.4c1.2,0.2,0.7-0.7,0.7-0.7c-1.6-0.3-1.3-1.5-0.7-2.2
		c0.1,0,0.2-0.1,0.3-0.1c1.6-0.4,3.2-1.2,4.6-2.1c0,0.1-0.1,0.2-0.1,0.3c-0.4,1.4,0.6,2.5,1.7,2.4c1.4-0.1,0.5-1.1,0.5-1.1
		c-1.8,0.2-2-1-1.6-2c1.3-0.9,2.4-1.9,3.4-2.7c0,0,0.1,0,0.1-0.1c-0.5,1.3,0.4,2.6,1.5,2.8c1.7,0.3,1-1.1,1-1.1
		c-2.1-0.3-2-1.7-1.4-2.7c0.6-0.6,1.2-1.2,1.7-1.7c1.8-1.8,3.6-3.7,5.9-5l0.1-0.1c0.4,0.2,0.8,0.3,1.2,0.5c-0.9,0.6-1.8,1.3-2.5,2.2
		c-2.5,3.1-2.7,7-1,10.5c0.7,1.5,1.8,2.9,3.1,4c0.1,0.1,0.2,0.2,0.3,0.2c0.1,0.2,0.2,0.5,0.3,0.7c1.3,2.4,2.8,5.9,1.2,8.5
		c-1.2,2-3.6,2.8-5.9,2.1c-0.9-0.3-1.7-0.8-2.1-1.7c-0.5-1.1-0.3-2.5,0.5-3.4c0.5-0.6,1.9-1.3,2.7-0.9c1,0.5,1.2,1.2,1.2,1.9
		c-0.2-0.1-0.6,0.1-0.9,0.4c-0.3,0.4-0.3,0.8-0.1,1s0.6,0,0.9-0.4c0.1-0.2,0.2-0.3,0.2-0.5c0.2-0.6,0.1-1.3-0.3-1.9
		c-0.9-1.2-2.2-1.1-3.3-0.3c-1.1,0.8-1.5,1.9-1.2,3.3c0.2,1.4,1,2.4,2.3,2.9c2.1,0.8,4.5,0.5,6-1.3c2-2.3,1-5.9,0-8.4
		c-0.2-0.5-0.5-1-0.7-1.5c0.7,0.5,1.5,1,2.3,1.3c0.4,2.6,2,4.7,4,6.5c2.1,2,4.8,3.8,6.2,6.4c0.8,1.4,1,3,0.6,4.5
		c-0.5,1.9-1.5,4-3.3,4.9c-0.9,0.5-2.1,0.7-3.1,0.3s-2.1-1.3-2.4-2.4c-0.3-1,0.3-2.7,1.4-3c0.5-0.1,1.1-0.1,1.5,0.2
		c0.6,0.4,0.8,1.1,0.7,1.7c-0.2-0.1-0.6,0-0.9,0.3s-0.5,0.8-0.3,1s0.6,0.1,1-0.2c0.1-0.1,0.2-0.3,0.3-0.4c0.3-0.5,0.4-1.1,0.1-1.8
		c-0.3-0.9-1.4-1.6-2.4-1.3c-2.2,0.8-2.5,3.6-1.3,5.2c0.7,1,1.8,2,3.5,2c1.3,0,2.8-0.7,3.7-1.6c1.6-1.5,2.3-3.7,2.2-5.9
		C-15,224.9-21.6,222.5-24.7,218z M-17.1,155.8c1,0.4,1.9,2,0.5,2.5c-0.8,0.3-1.7,0.1-2.6-0.1c-1.2-0.3-2.2-1-3.2-1.7
		C-20.8,155.8-18.8,155.2-17.1,155.8z M-29.1,158.4c-0.8,0.4-1.8,0.8-2.8,0.6c-0.7-0.1-2.1-0.7-1.7-1.6c0.3-0.9,1.3-1.3,2.1-1.5
		c1.8-0.4,3.4,0.2,4.9,1.2C-27.5,157.5-28.3,158-29.1,158.4z M-39,185.8c0.3-0.9,0.7-2,1.1-3c0.9,0.3,1.9,0.5,2.9,0.5
		c1.2,0,2.3-0.3,3.3-0.7c1.4-0.7,2.1-1.9,1.7-3.2c-0.3-1.3-1.4-2-2.8-2c-0.2,0-0.4,0-0.6,0.1c-1.9,0.3-3.5,1.7-4.8,4.1
		c-1.3-0.4-2.2-1-2.8-1.7c-1.3-1.5-1.2-3.6,0.2-5.1c1.5-1.7,3.4-2.1,5.3-2.2c0.5,0,1.1-0.1,1.5-0.1c2.7,0,4.7,0.6,6.1,1.9
		c1.5,1.3,2.1,3.2,1.7,5.3c-0.4,2-1.5,3.8-3,5c-0.9,0.7-1.8,1.2-2.8,1.4c-1.5,0.4-3,0.6-4.4,0.6c-0.8,0-1.6-0.1-2.3-0.2
		c-0.1,0-0.3-0.1-0.4-0.1C-39.1,186-39.1,185.9-39,185.8z M-37.3,181.7c0.1-0.2,0.2-0.3,0.3-0.5c0.9-1.2,2.3-2.7,4.2-2.7l0,0
		c0.5,0,1.6,0.1,2,0.7c0.1,0.2,0.2,0.4,0.1,0.7c-0.2,0.7-0.8,1.2-1.6,1.5c-1,0.4-2,0.6-2.9,0.6c-0.6,0-1.2-0.1-1.8-0.2
		C-37.1,181.8-37.2,181.7-37.3,181.7z M-36.7,140.7c-0.2-0.8-0.4-1.7-0.1-2.6c0.6-1.4,2.1-0.6,2.5,0.5c0.6,1.6,0,3.6-0.7,5.3
		C-35.7,142.9-36.3,141.9-36.7,140.7z M-35.6,148.1c1,1.5,1.6,3.1,1.2,4.9c-0.2,0.9-0.6,1.8-1.5,2.1s-1.5-1.1-1.6-1.7
		c-0.2-1,0.2-1.9,0.6-2.8C-36.5,149.8-36,149-35.6,148.1z M-89,146.1c-0.1-0.2-0.2-0.4-0.3-0.6c-0.2-0.6-0.5-1.3-0.4-2
		s1.2-1.9,1.8-0.8c0.4,0.6,0.2,1.5-0.1,2.1C-88.2,145.4-88.6,145.8-89,146.1z M-93,143.9c0.2-2.2,1.2-4.2,3-5.4
		c2.1-1.5,4.8-0.5,6.1,1.6c1.1,1.6,0.9,3.7,0,5.4c-0.9,1.8-3.3,2.5-4.7,1.3c0.3-0.3,0.7-0.6,0.9-1c0.6-1,1-2.8-0.2-3.5
		c-1-0.6-2.2-0.2-2.6,1c-0.3,1.1,0.1,2.5,0.9,3.3c-0.1,0.1-0.3,0.2-0.4,0.2c-0.8,0.5-1.8,0.7-2.7,0.7C-93,146.3-93.1,145.2-93,143.9
		z M-73.7,150.4c-0.1-0.2-0.2-0.5-0.3-0.7c0.2-0.3,0.3-0.6,0.4-0.9c0.6-1.4,0.7-2.3,0.9-3.7c0.1-0.9,0-1.6-0.3-2.5
		c0-0.1-0.3-0.1-0.2,0c0.3,0.7,0.3,2.1,0.2,3.1c-0.1,1.1-0.8,2.5-1.3,3.5c-0.6-1.2-1.1-2.5-1.4-3.8c-0.6-2.2-0.1-4.2,1.2-5.4
		c0.3-0.3,0.6-0.4,0.8-0.4c0.8,0,1.4,0.9,1.6,1.3c0.5,0.9,0.6,2,0.6,2.9c0,1.2-0.3,2.3-0.6,3.4c-0.3,1.2-0.8,2.5-1.4,3.7
		L-73.7,150.4z M-73.4,171.1c-0.1,0-0.1,0-0.2,0c-0.8,0-1.4-1.1-1.6-1.6c-0.5-1.5,0.5-2.9,0.9-3.5c1-1.2,2.4-1.9,3.4-2.3
		c0,0.3,0.1,0.6,0.1,0.9C-70.6,166.8-70.7,170.5-73.4,171.1z M-60.3,158.5c-0.4-1.6-0.3-3.1,0.4-4.7c0.4-0.9,0.9-1.4,1.5-1.6
		c0.3-0.1,0.6-0.1,0.8,0.1c0.4,0.4,0.5,1.5,0.5,1.9c0,1.9-1.5,3.3-2.7,4.2c-0.2,0.1-0.3,0.2-0.5,0.3
		C-60.3,158.7-60.3,158.6-60.3,158.5z M-64.8,160.3c-0.5-2.4-0.1-5,0.4-6.7c0.2-1,0.7-2,1.4-2.8c1.2-1.5,3-2.6,5-3
		c0.4-0.1,0.8-0.1,1.2-0.1c1.6,0,3,0.6,4.1,1.8c1.5,1.7,2.1,4.2,1.9,7.7c-0.1,1.9-0.5,3.8-2.2,5.3c-0.8,0.7-1.8,1.1-2.7,1.1
		s-1.7-0.3-2.4-0.9c-0.7-0.6-1.3-1.6-1.7-2.8c2.4-1.3,3.8-2.9,4.1-4.8c0.3-1.7-0.5-3-2-3.4c-0.2-0.1-0.5-0.1-0.7-0.1
		c-1,0-1.9,0.7-2.5,1.8c-0.9,1.8-1,4-0.3,6.1c-1,0.5-2.1,0.8-3,1.1c-0.1,0-0.3,0.1-0.4,0.1C-64.7,160.5-64.7,160.4-64.8,160.3z
		 M-44.5,195.7c-1.1,0.9-2.4,1.3-3.5,0.9c-0.7-0.3-1.8-0.9-1.6-1.8c0.5-2.2,3.2-2.7,5.4-2.7c0.4,0,0.8,0,1.2,0c0.3,0,0.6,0,0.9,0.1
		C-42.6,193.3-43.3,194.7-44.5,195.7z M-29.2,195c1.2-0.6,2.4-1.1,3.7-1.4c1.1-0.3,2.2-0.6,3.3-0.6h0.1c0.9,0,2,0.1,2.9,0.6
		c0.4,0.3,1.2,0.8,1.3,1.5c0.1,0.3-0.1,0.7-0.4,1c-1.1,1.2-2.6,1.4-3.6,1.4c-0.6,0-1.2-0.1-1.8-0.2c-1.3-0.3-2.5-0.8-3.7-1.4
		c1-0.5,2.3-1.1,3.4-1.2c1-0.1,2.4-0.1,3.1,0.2v-0.2c-0.9-0.3-1.6-0.4-2.5-0.3c-1.4,0.1-2.3,0.3-3.7,0.9c-0.3,0.1-0.5,0.2-0.8,0.4
		c-0.3-0.1-0.5-0.2-0.8-0.4L-29.2,195z M-25.3,211.5c0.1-0.1,0.2-0.2,0.2-0.4c0.8,0.8,2.2,1.1,3.3,0.9c1.2-0.3,1.6-1.6,1-2.6
		c-0.7-1.2-2.5-0.9-3.5-0.2c-0.4,0.2-0.7,0.5-1,0.9c-1.2-1.4-0.5-3.8,1.3-4.7c1.7-0.9,3.7-1.1,5.4,0c2,1.4,3,4,1.6,6.1
		c-1.3,1.8-3.2,2.8-5.4,3c-1.3,0.1-2.4,0-3.5-0.4C-26,213.3-25.8,212.4-25.3,211.5z M-24.7,210.6c0.3-0.4,0.7-0.8,1.2-1
		c0.6-0.2,1.5-0.4,2.1-0.1c1.1,0.6-0.1,1.7-0.8,1.8c-0.6,0.1-1.4-0.2-2-0.4C-24.3,210.9-24.5,210.8-24.7,210.6z"/>
	<linearGradient id="SVGID_4_" gradientUnits="userSpaceOnUse" x1="-64.15" y1="185.6375" x2="-64.075" y2="185.6375">
		<stop  offset="0" style="stop-color:#EBBF64"/>
		<stop  offset="0.2776" style="stop-color:#D0B56F"/>
		<stop  offset="0.6403" style="stop-color:#EDCF76"/>
		<stop  offset="0.7434" style="stop-color:#DDB966"/>
		<stop  offset="1" style="stop-color:#C79B50"/>
	</linearGradient>
	<path fill="url(#SVGID_4_)" d="M-64.1,185.6C-64.1,185.6-64.1,185.7-64.1,185.6C-64.1,185.7-64,185.7-64.1,185.6
		C-64,185.6-64,185.6-64.1,185.6L-64.1,185.6z"/>
</g>
</svg>
