<?xml version="1.0" encoding="utf-8"?>
<!-- Generator: Adobe Illustrator 19.1.0, SVG Export Plug-In . SVG Version: 6.00 Build 0)  -->
<!DOCTYPE svg PUBLIC "-//W3C//DTD SVG 1.1//EN" "http://www.w3.org/Graphics/SVG/1.1/DTD/svg11.dtd">
<svg version="1.1" id="Layer_2" xmlns="http://www.w3.org/2000/svg" xmlns:xlink="http://www.w3.org/1999/xlink" x="0px" y="0px"
	 viewBox="-135 127.9 128.8 147.1" enable-background="new -135 127.9 128.8 147.1" xml:space="preserve">
<g>
	<linearGradient id="SVGID_1_" gradientUnits="userSpaceOnUse" x1="-55.85" y1="197.9656" x2="-55.5827" y2="197.9656">
		<stop  offset="0" style="stop-color:#EBBF64"/>
		<stop  offset="0.2728" style="stop-color:#D0B56F"/>
		<stop  offset="0.6403" style="stop-color:#EDCF76"/>
		<stop  offset="0.7434" style="stop-color:#DDB966"/>
		<stop  offset="1" style="stop-color:#C79B50"/>
	</linearGradient>
	<path fill="url(#SVGID_1_)" d="M-55.8,198L-55.8,198c0.1,0,0.1-0.1,0.2-0.1C-55.4,197.7-55.7,198-55.8,198z"/>
	<linearGradient id="SVGID_2_" gradientUnits="userSpaceOnUse" x1="-63.3187" y1="205.578" x2="-63.15" y2="205.578">
		<stop  offset="0" style="stop-color:#EBBF64"/>
		<stop  offset="0.2728" style="stop-color:#D0B56F"/>
		<stop  offset="0.6403" style="stop-color:#EDCF76"/>
		<stop  offset="0.7434" style="stop-color:#DDB966"/>
		<stop  offset="1" style="stop-color:#C79B50"/>
	</linearGradient>
	<path fill="url(#SVGID_2_)" d="M-63.2,205.6c0.1-0.1,0.1-0.1,0.1-0.2l0,0C-63.1,205.4-63.4,205.8-63.2,205.6z"/>
	<linearGradient id="SVGID_3_" gradientUnits="userSpaceOnUse" x1="-126.25" y1="186.1454" x2="-23.35" y2="186.1454">
		<stop  offset="0" style="stop-color:#EBBF64"/>
		<stop  offset="0.2728" style="stop-color:#D0B56F"/>
		<stop  offset="0.6403" style="stop-color:#EDCF76"/>
		<stop  offset="0.7434" style="stop-color:#DDB966"/>
		<stop  offset="1" style="stop-color:#C79B50"/>
	</linearGradient>
	<path fill="url(#SVGID_3_)" d="M-126.2,229.8c0,2.2,0.7,4.4,2.2,5.9c0.9,0.9,2.4,1.6,3.7,1.6c1.7,0,2.8-1,3.5-2
		c1.2-1.6,0.9-4.4-1.3-5.2c-1-0.4-2.1,0.4-2.4,1.3c-0.2,0.7-0.2,1.3,0.1,1.8c0.1,0.2,0.2,0.3,0.3,0.4c0.3,0.3,0.8,0.4,1,0.2
		s0.1-0.6-0.3-1c-0.3-0.3-0.7-0.4-0.9-0.3c-0.1-0.6,0-1.3,0.7-1.7c0.4-0.3,1-0.3,1.5-0.2c1.1,0.3,1.7,2,1.4,3
		c-0.3,1.1-1.4,2-2.4,2.4s-2.2,0.2-3.1-0.3c-1.8-0.9-2.8-3-3.3-4.9c-0.4-1.6-0.2-3.1,0.6-4.5c1.4-2.6,4.1-4.4,6.2-6.4
		c2-1.8,3.6-3.9,4-6.5c0.8-0.3,1.6-0.8,2.3-1.3c-0.2,0.5-0.5,1-0.7,1.5c-1,2.5-2,6.1,0,8.4c1.5,1.8,3.9,2.1,6,1.3
		c1.3-0.5,2-1.6,2.3-2.9c0.2-1.3-0.2-2.5-1.2-3.3c-1.2-0.8-2.4-0.9-3.3,0.3c-0.4,0.6-0.6,1.3-0.3,1.9c0,0.1,0.1,0.3,0.2,0.5
		c0.3,0.4,0.7,0.6,0.9,0.4c0.2-0.2,0.2-0.6-0.1-1c-0.3-0.4-0.6-0.5-0.9-0.4c0-0.6,0.2-1.4,1.2-1.9c0.8-0.4,2.1,0.3,2.7,0.9
		c0.8,0.9,0.9,2.3,0.5,3.4c-0.4,0.9-1.2,1.4-2.1,1.7c-2.3,0.7-4.6-0.1-5.9-2.1c-1.6-2.6-0.1-6,1.2-8.5c0.1-0.2,0.2-0.5,0.3-0.7
		c0.1-0.1,0.2-0.2,0.3-0.2c1.3-1.1,2.4-2.5,3.1-4c1.7-3.5,1.5-7.4-1-10.5c-0.7-0.9-1.5-1.6-2.5-2.2c0.4-0.2,0.8-0.4,1.2-0.5l0.1,0.1
		c2.2,1.3,4.1,3.2,5.9,5c0.6,0.6,1.1,1.2,1.7,1.7c0.6,1,0.7,2.4-1.4,2.7c0,0-0.7,1.4,1,1.1c1.1-0.2,1.9-1.5,1.5-2.8
		c0,0,0.1,0,0.1,0.1c0.9,0.8,2.1,1.8,3.4,2.7c0.3,1,0.1,2.2-1.6,2c0,0-0.8,0.9,0.5,1.1c1.1,0.1,2.1-1,1.7-2.4c0-0.1-0.1-0.2-0.1-0.3
		c1.4,0.9,2.9,1.7,4.6,2.1c0.1,0,0.2,0.1,0.3,0.1c0.6,0.7,0.9,2-0.7,2.2c0,0-0.5,1,0.7,0.7c0.9-0.2,1.5-1.4,0.8-2.4
		c-0.1-0.2-0.3-0.4-0.4-0.5c1.5,0.3,3.1,0.5,5.1,0.5c4.2,0,9.8-0.9,12.9-5.1c0.8-1.1,1.3-2.4,1.6-3.7c2.7-1,5.6-1.5,8.3-0.5
		c2.2,0.8,4.2,2.8,4.8,5.1c0.7,2.5-0.8,5.1-3.5,5.3c-2,0.1-4-1.3-4.1-3.4c-0.1-1.2,0.9-2.4,1.9-2.7c0.7-0.2,1.7-0.1,2.2,0.7
		c0,0,0,0-0.1,0c-0.4-0.1-0.9,0.4-1,1.1c-0.2,0.7,0,1.4,0.4,1.5c0.3,0.1,0.7-0.3,0.9-0.8v0.1c0.6-1.1,0-2.4-1.3-2.9
		c-1.4-0.5-2.7,0.7-3.2,1.9c-1.2,3.2,2,6,5,5.2c1.7-0.4,2.5-2,3-3.5c0.5-1.7,0.1-3.5-0.8-5c-2.3-3.7-6.8-4.5-10.7-3.5
		c-0.6,0.2-1.2,0.4-1.8,0.6c0.2-1,0.2-2,0.1-2.9c-0.3-2.8-2.4-5.5-4.3-6.9c-1.3-1-2.8-1.5-4.2-1.5c-0.8,0-1.6,0.2-2.4,0.5
		c-2.4,1-3.9,3-3.8,5.3c0.1,2.1,1.4,4.3,3.6,4.2c0.8,0,2-0.4,2.3-1.5c0.3-0.8,0.2-1.5-0.2-2.4c0-0.1-0.1-0.1-0.1-0.2
		c0-0.1-0.1-0.1-0.1-0.2l0,0h-0.1l0,0l0,0l0,0c-0.2-0.1-0.4-0.2-0.5-0.2c-0.4,0.1-0.6,0.8-0.4,1.5s0.7,1.2,1.1,1.1l0,0
		c-0.2,0.4-0.5,0.7-0.9,0.9c-0.9,0.5-1.9,0.4-2.7-0.2c-1.3-1.1-1.9-3.2-1.4-4.7c0.6-1.7,2.9-2.8,4.8-3.1c1.4-0.2,2.9,0.3,4.3,1.2
		c2.1,1.4,4.3,4.4,4.4,7.2c0,0.7,0,1.3-0.1,2c-3.3,1.5-6.1,3.8-9.7,4.5c-1.5,0.3-3.1,0.4-4.7,0.4c-1.9,0-4-0.1-5.8-0.7
		c-3.8-1-7-3.7-9.8-6.4c0,0-0.1,0.1-0.1,0.2c2.8,3.4,6.5,6.4,10.9,7.3c3.6,0.7,7.6,0.7,11.1-0.4c2.2-0.7,4.1-2.1,6.2-3.2
		c0.5-0.3,1.1-0.6,1.7-0.8c-0.5,1.6-1.4,3.1-2.8,4.2c-2.5,2.1-6.1,3.1-10.7,3.1c-1,0-2,0-3-0.1c-2.1-0.2-3.8-0.7-5.5-1.5
		c-3.6-1.8-6.5-4.6-9.4-7.6c-1.5-1.5-2.9-2.7-4.3-3.7c0.9-0.4,1.8-0.7,2.6-1c2.7-0.9,4.9-1.4,7-1.7c1.5,3.8,3.3,5.6,5.6,5.6
		c0.2,0,0.4,0,0.5,0c0.9-0.1,1.8-0.7,2.3-1.6c0.5-0.9,0.7-1.9,0.4-2.7c-0.6-1.8-2.5-2.7-5.6-2.7c-0.3,0-0.6,0-1,0
		c-0.6,0-1.2,0.1-1.8,0.2c-0.1-0.2-0.1-0.4-0.2-0.6c-0.2-0.5-0.4-1.1-0.6-1.6c0.6-0.2,1.1-0.5,1.7-0.8c0,0,0,0,0.1,0
		c0.5,0.1,1.2,0.1,1.5,0c0.4-0.2,4.1-2.4,4.1-2.4s-4.4,0.6-4.9,0.8c-0.4,0.2-1.3,1.6-1.3,1.6s0.1,0,0.3,0c-0.5,0.2-1,0.4-1.5,0.6
		c-0.2-0.6-0.4-1.2-0.6-1.8c1.2-0.4,2.5-0.8,3.6-1.3c0.2-0.1,0.4-0.2,0.6-0.3l0.1-0.1c3.3-1.3,6.8-2.6,10.4-2.5
		c3.4,0.1,6.8,0.9,9,2.8c-2.3-2.3-5.6-3.8-9.1-3.9c-0.3-0.1-0.7-0.1-1-0.2c-1.8-0.4-3.6-0.6-5.1-1.6c-0.8-0.5-1.5-1.3-1.8-2.3
		c-0.3-1.2,0.5-2.6,1.5-3.3s1.6-0.8,2.6-0.7c1.1,0.1,2.1,1.1,2.1,2.3c-0.3-0.2-0.8-0.1-1.2,0.3c-0.5,0.4-0.7,1-0.4,1.2
		c0.2,0.3,0.8,0.1,1.3-0.3l0,0c0.6-0.4,0.7-1.2,0.6-1.9c-0.1-0.4-0.2-0.7-0.5-0.9c0.3,0.2,0.6,0.4,0.9,0.5c0.7,0.2,1.5,0,1.9-0.6
		l0,0c0.4-0.5,0.5-1,0.3-1.3c-0.3-0.2-0.8,0-1.2,0.4c-0.4,0.4-0.5,1-0.3,1.2c-1.1,0.1-2.2-0.9-2.3-2.1c0-0.9,0-1.6,0.7-2.6
		s2.1-1.8,3.3-1.5c1,0.3,1.8,1,2.3,1.8c1,1.6,1.2,3.3,1.6,5.1c0.1,0.3,0.1,0.7,0.2,1c0.1,3.4,1.4,6.9,3.8,9.2
		c-1.9-2.2-2.6-5.6-2.7-9c-0.1-3.6,1.2-7.1,2.5-10.4l0.1-0.1c0.1-0.2,0.2-0.4,0.3-0.6c0.5-1.2,0.9-2.4,1.3-3.6
		c0.6,0.2,1.2,0.4,1.8,0.6c-0.2,0.4-0.3,0.9-0.5,1.3c-0.2,0.1-1.3,0.9-1.5,1.3c-0.2,0.4-0.8,4.9-0.8,4.9s2.2-3.6,2.4-4.1
		c0.2-0.3,0-1.3,0-1.8c0.2-0.5,0.5-1,0.7-1.5c0.5,0.2,1.1,0.4,1.6,0.6c0.2,0.1,0.4,0.1,0.6,0.2c-0.1,0.6-0.1,1.2-0.2,1.8
		c-0.2,3.7,0.7,5.9,2.7,6.6c0.3,0.1,0.6,0.1,0.9,0.1c1.7,0,3.2-1.3,3.4-2.9c0.3-2.5-1.5-4.5-5.5-6.1c0.3-2.1,0.8-4.3,1.7-7
		c0.3-0.8,0.6-1.7,1-2.6c1,1.5,2.2,2.9,3.7,4.3c2.9,2.9,5.7,5.7,7.6,9.4c0.9,1.7,1.3,3.4,1.5,5.5c0.4,4.1,0.2,9.9-3,13.7
		c-1.1,1.4-2.5,2.3-4.2,2.8c0.3-0.6,0.5-1.2,0.8-1.7c1.1-2,2.5-3.9,3.2-6.2c1.1-3.5,1.1-7.5,0.4-11.1c-0.8-4.4-3.9-8.1-7.3-10.9
		c0,0-0.2,0-0.2,0.1c2.7,2.8,5.3,6,6.4,9.8c0.5,1.9,0.6,3.9,0.7,5.8c0,1.6-0.1,3.1-0.4,4.7c-0.7,3.6-3,6.5-4.5,9.7
		c-0.6,0.1-1.1,0.1-1.7,0.1c-0.1,0-0.2,0-0.3,0c-2.8-0.1-5.8-2.3-7.2-4.4c-0.7-1-1.4-2.6-1.2-4.3c0.2-1.9,1.4-4.2,3.1-4.8
		c0.3-0.1,0.7-0.2,1.1-0.2c1.3,0,2.8,0.6,3.6,1.6c0.6,0.7,0.7,1.7,0.2,2.7c-0.2,0.4-0.5,0.7-0.9,0.9l0,0c0.1-0.4-0.4-0.9-1.1-1.1
		c-0.7-0.2-1.4,0-1.5,0.4c0,0.2,0,0.4,0.2,0.5l0,0v0.1h0.1c0.1,0,0.1,0.1,0.2,0.1s0.1,0.1,0.2,0.1c0.9,0.4,1.5,0.5,2.4,0.2
		c1.1-0.4,1.5-1.5,1.5-2.3s-0.3-1.6-0.9-2.2c-0.8-0.8-2-1.3-3.3-1.4c-0.1,0-0.1,0-0.2,0c-2.2,0-4.1,1.5-5.1,3.8
		c-0.9,2.2-0.5,4.5,1,6.6c1.4,1.9,4.1,4,6.9,4.3c0.4,0,0.8,0.1,1.1,0.1c0.6,0,1.2,0,1.8-0.1c-0.2,0.6-0.4,1.2-0.6,1.8
		c-1,3.9-0.2,8.4,3.5,10.7c1.5,0.9,3.3,1.3,5,0.8c1.5-0.4,3.1-1.3,3.5-3c0.7-3-2.1-6.3-5.2-5c-1.2,0.5-2.4,1.8-1.9,3.2
		c0.5,1.2,1.7,1.9,2.9,1.3h-0.1c0.5-0.2,0.9-0.6,0.8-0.9c-0.1-0.4-0.8-0.6-1.5-0.4c-0.7,0.2-1.2,0.6-1.1,1c0,0,0,0,0,0.1
		c-0.7-0.5-0.9-1.5-0.7-2.2c0.3-1.1,1.6-2,2.7-1.9c2.1,0.2,3.5,2.1,3.4,4.1c-0.1,2.7-2.8,4.2-5.3,3.5c-2.3-0.7-4.2-2.6-5.1-4.8
		c-1-2.7-0.6-5.6,0.5-8.3c1.4-0.3,2.7-0.9,3.7-1.6c4.2-3,5.1-8.7,5.1-12.9c0-1.9-0.1-3.6-0.4-5c0.1,0.1,0.3,0.3,0.5,0.4
		c1.1,0.7,2.2,0.1,2.4-0.8c0.2-1.2-0.7-0.7-0.7-0.7c-0.3,1.7-1.6,1.3-2.3,0.7c0-0.1-0.1-0.3-0.1-0.4c-0.4-1.6-1.2-3.1-2-4.4
		c0.1,0,0.2,0.1,0.3,0.1c1.4,0.4,2.5-0.6,2.4-1.7c-0.1-1.4-1.1-0.5-1.1-0.5c0.2,1.8-1,2-2,1.6c-0.9-1.3-1.9-2.5-2.7-3.4
		c1.3,0.4,2.6-0.4,2.8-1.5c0.3-1.7-1.1-1-1.1-1c-0.3,2-1.6,2-2.6,1.4c-0.6-0.7-1.3-1.3-1.9-1.9c-1.8-1.8-3.7-3.6-5-5.9l-0.1-0.1
		c0.2-0.4,0.3-0.7,0.5-1.1c0.6,0.9,1.3,1.7,2.1,2.3c3.1,2.5,7,2.7,10.5,1c1.5-0.7,2.9-1.8,4-3.1c0.1-0.1,0.2-0.2,0.2-0.3
		c0.2-0.1,0.5-0.2,0.7-0.3c2.4-1.3,5.9-2.8,8.5-1.2c2,1.2,2.8,3.6,2.1,5.9c-0.3,0.9-0.8,1.7-1.7,2.1c-1.1,0.5-2.5,0.3-3.4-0.5
		c-0.6-0.5-1.3-1.9-0.9-2.7c0.5-1,1.2-1.2,1.9-1.2c-0.1,0.2,0.1,0.6,0.4,0.9c0.4,0.3,0.8,0.3,1,0.1s0-0.6-0.4-0.9
		c-0.2-0.1-0.3-0.2-0.5-0.2c-0.6-0.2-1.3-0.1-1.9,0.3c-1.2,0.9-1.1,2.2-0.3,3.3s1.9,1.5,3.3,1.2c1.4-0.2,2.4-1,2.9-2.3
		c0.8-2.1,0.5-4.5-1.3-6c-2.3-2-5.9-1-8.4,0c-0.5,0.2-1,0.5-1.5,0.7c0.5-0.7,1-1.5,1.3-2.3c2.6-0.4,4.7-2,6.5-4
		c2-2.1,3.8-4.8,6.4-6.2c1.4-0.8,3-1,4.5-0.6c1.9,0.5,4,1.5,4.9,3.3c0.5,0.9,0.7,2.1,0.3,3.1c-0.4,1-1.3,2.1-2.4,2.4
		c-1,0.3-2.7-0.3-3-1.4c-0.1-0.5-0.1-1.1,0.2-1.5c0.4-0.6,1.1-0.8,1.7-0.7c-0.1,0.2,0,0.6,0.3,0.9c0.3,0.3,0.8,0.5,1,0.3
		s0.1-0.6-0.2-1c-0.1-0.1-0.3-0.2-0.4-0.3c-0.5-0.3-1.1-0.4-1.8-0.1c-0.9,0.3-1.6,1.4-1.3,2.4c0.8,2.2,3.6,2.5,5.2,1.3
		c1-0.7,2-1.8,2-3.5c0-1.3-0.7-2.8-1.6-3.7c-1.5-1.6-3.7-2.3-5.9-2.2c-6.2,0.1-8.7,6.8-13.2,9.9c-0.8,0.6-1.8,1-2.8,1.1
		c0.1-0.4,0.2-0.8,0.3-1.3c0.5-3.5-1.1-8-5.1-8.7c-1.6-0.3-3.4,0.5-4.6,1.5c-1.3,1-2.1,2.6-2,4.2c0.1,1.6,0.9,3.7,2.6,4.4
		c1.3,0.5,3,0.4,4.3-0.4c0.9,0.5,2,0.8,3,0.8c0.2,0,0.4,0,0.6,0c-0.3,0.8-0.7,1.6-1.3,2.4c-0.1,0.2-0.2,0.3-0.4,0.5
		c-1.2,0.6-2.5,1.3-3.9,1.7c-3.5,1.1-7.3,1.1-9.8-1.8c0,0-0.2,0-0.2,0.1c1.7,2.3,4.3,3,7,2.7c2.2-0.3,4.2-1,6.2-1.9
		c-2.9,3.1-7.3,4.7-11.3,2.6c-1.6-0.9-3-2.1-4-3.6c0.1-0.1,0.1-0.3,0.2-0.4c0.8-1.7,1.6-3.5,1.9-5.4c0.2-1,0.3-3.4-1.3-4.9
		c-0.5-0.5-1.1-0.7-1.8-0.7c-0.7,0-1.5,0.3-2.1,0.8c-2.4,2.2-1.6,5.8-0.9,8.3c0.5,1.5,1.1,2.8,1.9,4.2c-0.6,1.5-1.2,2.8-1.6,4.2
		c-0.8,2.4-1.2,4.3-1.5,6.1c-0.7-0.2-1.4-0.5-2-0.7c0.9-2.7,1.2-5.6,0.9-8.4c-0.1-0.6-0.1-1.2-0.2-1.9c-0.6-6.2-4.1-12.6-10.6-14.1
		c-3.3-0.7-6.8-0.3-10,0.7c-3.3,1-6.6,2.7-9.2,5c-1.1,1-2,2.1-2.8,3.3c-0.2-0.5-0.5-1.1-0.7-1.7v-0.1c0.7-0.8,1.3-1.6,1.7-2.5
		c0.6-1.1,1.3-2.8,0.9-4c-0.6-1.5-2.4-1.3-3.4-0.5c-1.4,0.9-1.3,2.7-1,4.2c0.2,1,0.5,2,0.9,3c-1,1.1-2.5,2.4-4,1.9
		c-1.9-0.6-2.8-2.3-3-4.2c-0.2-1.5-0.3-3.2-1.4-4.3c-1.3-1.3-4.4-2.1-5.4,0.1c-0.5,1.1-0.5,3.1,0.8,3.6c0.7,0.3,2.1,0.2,2.5-0.6
		c0-0.1,0,0.1-0.2,0.2c0.3-0.3,0.5-0.6,0.4-0.8c-0.2-0.3-0.7-0.3-1.3-0.1c-0.6,0.3-0.9,0.7-0.7,1.1c0,0.1,0.1,0.1,0.2,0.2
		c-0.4-0.1-0.8-0.3-1.2-0.8c-0.4-0.6-0.5-1.3-0.2-2.3c0.3-1.1,1.3-1.7,2.5-1.4c1,0.3,1.9,1,2.4,2c0.6,1.2,0.6,2.6,0.8,3.9
		c0.4,2.6,2.8,4.4,5.4,3.7c1-0.3,1.9-0.9,2.7-1.6c0.3,0.7,0.6,1.4,0.9,2.1c-0.6,0.9-1.3,1.8-1.6,2.9c-0.5,1.5-0.5,3.9,0.9,4.9
		c0.9,0.7,2.3,0.4,3.1-0.3c1.3-1.3,0.9-3,0.2-4.5c-0.5-1.1-1.1-2.2-1.6-3.3c0.6-0.9,1.1-1.8,1.8-2.7c2.4-2.8,5.8-4.8,9.4-6
		c3.4-1.1,7.4-1.7,10.9-0.5c4.7,1.5,7.5,5.5,8.9,10c-0.7-1.1-1.6-2.2-2.5-3.1c-2.6-2.5-5.8-4-9.4-3.9c-0.8,0-1.6,0.1-2.4,0.2
		c-0.9-0.1-2.1-0.8-1.1-2.1c0,0-0.4-0.8-0.9-0.1c-0.5,0.6-0.1,1.9,1.1,2.3c0.1,0,0.2,0.1,0.3,0.1c-0.8,0.2-1.6,0.4-2.4,0.6
		c-0.1,0-0.1,0.1-0.3,0.1c-1.7,0.6-3.3,1.4-4.7,2.5c-3.1,2.4-4.9,6.1-5.4,10c-0.4,2.9,0.2,7.1,3.2,8.6c2.5,1.3,6.1,0,6.5-3
		c0.2-1.6-0.6-3.3-2.7-3.8c-0.7-0.2-1.5,0.2-1.9,0.9c-0.3,0.1-0.6,0.6-0.5,1.2c0,0.6,0.4,1.1,0.7,1.1c0.3,0,0.6-0.5,0.6-1.2
		c0-0.5-0.2-0.9-0.5-1c0.2-0.3,0.6-0.6,1.1-0.6c1.4,0.1,2.1,0.7,2.4,1.5c0.6,1.4,0.3,2.5-0.3,3.4c-0.7,1.1-2.1,1.9-3.5,1.6
		c-0.9-0.2-1.6-0.6-2.2-1.3c-3.5-3.7-2.1-10.5,0.5-14.3c0.8-1.2,1.7-2.2,2.8-3c0.2-0.1,0.3-0.2,0.5-0.3c0.9-0.6,1.9-1.2,2.9-1.6
		c0.2-0.1,0.4-0.1,0.5-0.2c1.1-0.4,2.2-0.7,3.4-0.9c0.2,0,0.4-0.1,0.6-0.1c0.4-0.1,0.7-0.1,0.9-0.1c3.6-0.2,7,0.9,9.7,3.5
		c1.2,1.1,2.5,2.4,3.2,3.9s1,3.1,1.2,4.7c0.2,2.7,0.1,5.6-0.6,8.2c-0.6-0.2-1.1-0.4-1.7-0.5l-0.2-0.1l0,0c0.3-1.4,0.4-3,0.2-4.8
		c-0.2-1.9-0.5-3.8-1.8-5.5c-1.6-2.1-4.2-3.5-6.9-3.5l0,0c-1.2,0-2.4,0.3-3.4,0.8c-1.8,1-3.1,2.7-3.6,5c-0.3,1.4-0.4,2.9-0.2,4.5
		c0.2,2.2,0.6,3.9,1.9,5.2c1.2,1.2,2.7,1.7,4.2,1.5c1.6-0.2,3-1,3.8-2.1c0.4-0.5,0.8-1.1,1.1-1.8c0.6,0.3,1.2,0.5,2,0.7
		c0.5,0.2,1,0.3,1.6,0.5c-0.4,1.4-0.9,2.8-1.5,4.2c-0.2,0.4-0.3,0.9-0.5,1.3c-0.8,2.2-1.7,4.5-2.1,7c0,0.2,0,0.3-0.1,0.5
		c-0.1-0.6-0.2-1.3-0.4-1.9c-0.5-2-2-4.6-4.4-4.4c-2,0.2-4,1.8-3.8,4c0.1,0.6,0.3,1.3,0.7,1.8c-0.5-0.4-1.2-0.6-1.8-0.7
		c-2.2-0.2-3.8,1.8-4,3.8c-0.3,2.5,2.3,3.9,4.4,4.4c0.6,0.2,1.3,0.3,1.9,0.4c-0.2,0-0.3,0-0.5,0.1c-2.4,0.4-4.8,1.2-7,2.1
		c-0.4,0.2-0.9,0.3-1.3,0.5c-1.4,0.5-2.8,1.1-4.2,1.5c-0.2-0.5-0.3-1-0.5-1.6c-0.2-0.7-0.5-1.4-0.7-2c0.6-0.3,1.2-0.6,1.8-1.1
		c1.1-0.9,1.9-2.2,2.1-3.8s-0.3-3-1.5-4.2c-1.3-1.3-3-1.8-5.2-1.9c-0.5,0-1-0.1-1.5-0.1c-1,0-2.1,0.1-3,0.3c-2.2,0.5-4,1.8-5,3.6
		c-1.7,3.3-0.5,8,2.7,10.3c1.7,1.2,3.7,1.6,5.5,1.8s3.4,0.1,4.8-0.2l0,0l0.1,0.2c0.2,0.5,0.4,1.1,0.5,1.7c-2.6,0.8-5.5,0.9-8.2,0.6
		c-1.6-0.1-3.3-0.5-4.7-1.2c-1.5-0.7-2.8-2-3.9-3.2c-2.5-2.7-3.7-6.1-3.5-9.7c0.1-0.6,0-0.5,0.1-0.9c0-0.2,0.1-0.4,0.1-0.6
		c0.2-1.2,0.5-2.3,0.9-3.4c0.1-0.2,0.1-0.3,0.2-0.5c0.4-1,1-2,1.6-2.9c0.1-0.2,0.2-0.3,0.3-0.5c0.9-1.1,1.9-2,3-2.8
		c3.9-2.5,10.6-4,14.3-0.5c0.6,0.6,1.1,1.4,1.3,2.2c0.3,1.4-0.4,2.7-1.6,3.5c-1,0.6-2.1,0.9-3.4,0.3c-0.8-0.3-1.4-1-1.5-2.4
		c0-0.5,0.2-0.9,0.6-1.1c0.2,0.2,0.5,0.4,1,0.5c0.6,0,1.2-0.2,1.2-0.6c0-0.3-0.5-0.7-1.1-0.7s-1.1,0.2-1.2,0.5
		c-0.6,0.3-1,1.2-0.9,1.9c0.4,2.1,2.2,2.9,3.8,2.7c3-0.4,4.3-4.1,3-6.5c-1.5-3-5.7-3.5-8.6-3.2c-3.8,0.5-7.6,2.3-10,5.4
		c-1.1,1.4-1.9,3-2.5,4.7c-0.1,0.2-0.1,0.3-0.1,0.3c-0.3,0.8-0.5,1.6-0.6,2.4c0-0.1-0.1-0.2-0.1-0.3c-0.4-1.2-1.6-1.5-2.3-1.1
		c-0.9,0.6,0.1,0.9,0.1,0.9c1.3-1,2,0.3,2.1,1.1c-0.1,0.8-0.2,1.6-0.2,2.4c-0.1,3.6,1.4,6.9,3.9,9.4c0.9,0.9,1.9,1.9,3.1,2.5
		c-4.5-1.4-8.4-4.2-10-8.9c-1.2-3.5-0.6-7.5,0.5-10.9c1.2-3.5,3.2-6.9,6-9.4c0.8-0.7,1.8-1.2,2.7-1.8c1.1,0.5,2.2,1.1,3.3,1.6
		c1.5,0.7,3.2,1,4.5-0.2c0.8-0.8,1-2.2,0.3-3.1c-1-1.4-3.4-1.4-4.9-0.9c-1.1,0.3-1.9,1-2.9,1.6c-0.7-0.3-1.4-0.6-2.1-0.9
		c0.7-0.8,1.3-1.7,1.6-2.7c0.7-2.6-1.1-5-3.7-5.4c-1.3-0.2-2.6-0.2-3.9-0.8c-1-0.5-1.7-1.4-2-2.4c-0.4-1.2,0.2-2.2,1.4-2.5
		c1-0.3,1.7-0.2,2.3,0.2c0.5,0.3,0.7,0.7,0.8,1.2c0-0.1-0.1-0.2-0.2-0.2c-0.3-0.2-0.8,0.2-1.1,0.7c-0.3,0.6-0.2,1.1,0.1,1.3
		c0.2,0.1,0.6,0,0.8-0.4c-0.2,0.2-0.3,0.3-0.2,0.2c0.8-0.4,0.9-1.7,0.6-2.5c-0.5-1.3-2.5-1.3-3.6-0.8c-2.2,0.9-1.3,4.1-0.1,5.4
		c1.1,1.1,2.8,1.2,4.3,1.4c1.9,0.2,3.5,1.1,4.2,3c0.5,1.5-0.7,3-1.9,4c-1-0.4-2-0.7-3-0.9c-1.5-0.3-3.3-0.3-4.2,1
		c-0.8,1.1-1,2.9,0.5,3.4c1.2,0.5,2.9-0.3,4-0.9c0.8-0.5,1.7-1,2.5-1.7h0.1c0.6,0.2,1.1,0.5,1.7,0.7c-1.2,0.7-2.3,1.7-3.3,2.8
		c-2.4,2.6-4,5.8-5,9.2c-1,3.2-1.4,6.7-0.7,10c1.4,6.5,7.9,10,14.1,10.6c0.6,0.1,1.2,0.2,1.9,0.2c2.8,0.3,5.7,0,8.4-0.9
		c0.2,0.7,0.5,1.4,0.7,2c-1.8,0.3-3.7,0.8-6.1,1.5c-1.4,0.4-2.7,0.9-4.2,1.6c-1.4-0.8-2.7-1.4-4.2-1.9c-1.7-0.5-3-0.8-4.2-0.8
		c-1.7,0-3.1,0.5-4.1,1.6c-1.1,1.1-1.1,2.8-0.1,3.9c1.1,1.2,2.6,1.4,3.7,1.4c0.4,0,0.8,0,1.2-0.1c1.9-0.3,3.7-1.1,5.4-1.9
		c0.1-0.1,0.2-0.1,0.3-0.2c1.6,1,2.9,2.5,3.8,4.1c2.2,4,0.6,8.5-2.6,11.3c0.9-2,1.7-4,1.9-6.2c0.3-2.7-0.4-5.3-2.7-7
		c0,0-0.1,0.1-0.1,0.2c2.9,2.6,3,6.4,1.8,9.8c-0.4,1.4-1.1,2.6-1.7,3.9c-0.2,0.1-0.3,0.3-0.5,0.4c-0.8,0.6-1.5,1-2.4,1.3
		c0-0.2,0-0.4,0-0.6c0-1-0.3-2.1-0.8-3c0.8-1.2,1-2.9,0.4-4.3c-0.7-1.6-2.7-2.5-4.4-2.6c-1.6-0.1-3.2,0.7-4.2,2
		c-1,1.2-1.7,3-1.5,4.6c0.6,4,5.2,5.5,8.7,5.1c0.4-0.1,0.9-0.2,1.3-0.3c-0.2,1-0.6,2-1.1,2.8C-119.4,221.1-126,223.5-126.2,229.8z
		 M-118.6,155c-0.9,0.7-2,1.4-3.2,1.7c-0.8,0.2-1.7,0.4-2.6,0.1c-1.4-0.6-0.6-2.1,0.5-2.5C-122.3,153.8-120.3,154.4-118.6,155z
		 M-114.4,155.7c1.5-1,3.1-1.6,4.9-1.2c0.9,0.2,1.8,0.6,2.1,1.5c0.3,0.9-1.1,1.5-1.7,1.6c-1,0.2-1.9-0.2-2.8-0.6
		C-112.8,156.6-113.6,156.1-114.4,155.7z M-101.9,184.8c-0.1,0-0.3,0.1-0.4,0.1c-0.7,0.1-1.5,0.2-2.3,0.2c-1.4,0-2.9-0.2-4.4-0.6
		c-1-0.2-2-0.7-2.8-1.4c-1.5-1.2-2.6-3-3-5s0.2-3.9,1.7-5.3c1.4-1.3,3.5-1.9,6.1-1.9c0.5,0,1,0,1.5,0.1c1.9,0.1,3.8,0.5,5.3,2.2
		c1.4,1.6,1.5,3.7,0.2,5.1c-0.6,0.7-1.6,1.3-2.8,1.7c-1.3-2.4-2.9-3.8-4.8-4.1c-0.2,0-0.4-0.1-0.6-0.1c-1.4,0-2.4,0.8-2.8,2
		c-0.3,1.3,0.3,2.5,1.7,3.2c1,0.5,2.1,0.7,3.3,0.7c1,0,1.9-0.2,2.9-0.5c0.5,1,0.8,2.1,1.1,3C-102,184.5-101.9,184.6-101.9,184.8z
		 M-104,180.4c-0.6,0.2-1.2,0.2-1.8,0.2c-1,0-1.9-0.2-2.9-0.6c-0.9-0.4-1.4-0.9-1.6-1.5c-0.1-0.3-0.1-0.5,0.1-0.7
		c0.4-0.5,1.5-0.7,2-0.7l0,0c1.9,0,3.3,1.5,4.2,2.7c0.1,0.2,0.2,0.3,0.3,0.5C-103.8,180.3-103.9,180.4-104,180.4z M-106.1,142.5
		c-0.6-1.6-1.2-3.6-0.7-5.3c0.4-1,2-1.9,2.5-0.5c0.3,0.8,0.1,1.7-0.1,2.6C-104.7,140.5-105.3,141.5-106.1,142.5z M-104.1,149.2
		c0.4,0.8,0.8,1.8,0.6,2.8c-0.1,0.7-0.7,2.1-1.6,1.7c-0.9-0.3-1.3-1.3-1.5-2.1c-0.4-1.8,0.2-3.4,1.2-4.9
		C-105,147.6-104.5,148.4-104.1,149.2z M-53,143.5c-0.2-0.6-0.4-1.5-0.1-2.1c0.6-1.1,1.7,0.1,1.8,0.8c0.1,0.6-0.2,1.4-0.4,2
		c-0.1,0.2-0.2,0.4-0.3,0.6C-52.4,144.4-52.8,144-53,143.5z M-48.4,146c-0.9,0-1.9-0.2-2.7-0.7c-0.1-0.1-0.2-0.2-0.4-0.2
		c0.8-0.8,1.1-2.2,0.9-3.3c-0.3-1.2-1.6-1.6-2.6-1c-1.2,0.7-0.9,2.5-0.2,3.5c0.2,0.4,0.5,0.7,0.9,1c-1.4,1.2-3.8,0.5-4.7-1.3
		c-0.9-1.7-1.1-3.7,0-5.4c1.4-2,4-3,6.1-1.6c1.8,1.3,2.8,3.2,3,5.4C-47.9,143.8-48.1,144.9-48.4,146z M-67.5,149.3
		c-0.6-1.2-1.1-2.4-1.4-3.7c-0.3-1.1-0.6-2.3-0.6-3.4c0-0.9,0.1-2,0.6-2.9c0.2-0.4,0.8-1.3,1.6-1.3c0.3,0,0.6,0.1,0.8,0.4
		c1.3,1.2,1.8,3.2,1.2,5.4c-0.3,1.3-0.9,2.6-1.4,3.8c-0.5-1.1-1.2-2.4-1.3-3.5c-0.1-1-0.1-2.4,0.2-3.1H-68c-0.3,0.9-0.4,1.6-0.3,2.5
		c0.1,1.4,0.3,2.3,0.9,3.7c0.1,0.3,0.3,0.6,0.4,0.9c-0.1,0.2-0.2,0.5-0.3,0.7L-67.5,149.3z M-70.3,163.2c0-0.3,0-0.6,0.1-0.9
		c1,0.4,2.4,1.2,3.4,2.3c0.4,0.5,1.4,1.9,0.9,3.5c-0.2,0.6-0.8,1.6-1.6,1.6c-0.1,0-0.1,0-0.2,0C-70.3,169.1-70.4,165.4-70.3,163.2z
		 M-80.8,157.4c-0.2-0.1-0.3-0.2-0.5-0.3c-1.2-0.9-2.7-2.3-2.7-4.2c0-0.5,0.1-1.5,0.5-1.9c0.2-0.2,0.5-0.3,0.8-0.1
		c0.7,0.2,1.2,0.8,1.5,1.6c0.7,1.6,0.8,3.1,0.4,4.7C-80.8,157.2-80.8,157.3-80.8,157.4z M-76.4,159.3c-0.1,0-0.3-0.1-0.4-0.1
		c-0.9-0.3-2-0.7-3-1.1c0.7-2.1,0.6-4.4-0.3-6.1c-0.6-1.1-1.5-1.8-2.5-1.8c-0.2,0-0.5,0-0.7,0.1c-1.5,0.4-2.3,1.7-2,3.4
		c0.3,1.9,1.7,3.5,4.1,4.8c-0.4,1.3-1,2.2-1.7,2.8s-1.5,0.9-2.4,0.9c-1,0-1.9-0.4-2.7-1.1c-1.7-1.5-2.1-3.4-2.2-5.3
		c-0.3-3.4,0.3-6,1.9-7.7c1.1-1.2,2.5-1.8,4.1-1.8c0.4,0,0.8,0,1.2,0.1c2,0.4,3.8,1.5,5,3c0.7,0.9,1.2,1.8,1.4,2.8
		c0.4,1.7,0.8,4.2,0.4,6.7C-76.3,159-76.3,159.1-76.4,159.3z M-98.8,190.9c0.3,0,0.6-0.1,0.9-0.1c0.4,0,0.8,0,1.2,0
		c2.2,0,4.9,0.5,5.4,2.7c0.2,0.8-0.9,1.5-1.6,1.8c-1.1,0.4-2.4,0-3.5-0.9C-97.7,193.3-98.4,191.9-98.8,190.9z M-112.2,193.8
		c-0.3,0.1-0.5,0.2-0.8,0.4c-0.3-0.1-0.5-0.3-0.8-0.4c-1.4-0.6-2.3-0.7-3.7-0.9c-0.9-0.1-1.6,0-2.5,0.3c-0.1,0-0.1,0.3,0,0.2
		c0.7-0.3,2.1-0.3,3.1-0.2c1.1,0.1,2.4,0.7,3.4,1.2c-1.2,0.5-2.4,1-3.7,1.4c-0.6,0.2-1.2,0.2-1.8,0.2c-1,0-2.5-0.2-3.6-1.4
		c-0.3-0.3-0.4-0.7-0.4-1c0.1-0.7,0.9-1.2,1.3-1.5c0.9-0.5,2-0.6,2.9-0.6h0.1c1.1,0,2.3,0.3,3.3,0.6c1.2,0.3,2.5,0.8,3.7,1.4
		L-112.2,193.8z M-115.1,212.8c-1.1,0.4-2.3,0.5-3.5,0.4c-2.2-0.2-4.2-1.2-5.4-3c-1.5-2.1-0.5-4.8,1.6-6.1c1.6-1.1,3.7-0.9,5.4,0
		c1.8,0.9,2.5,3.3,1.3,4.7c-0.3-0.3-0.6-0.7-1-0.9c-1-0.6-2.8-1-3.5,0.2c-0.6,1-0.2,2.2,1,2.6c1.1,0.3,2.5-0.1,3.3-0.9
		c0.1,0.1,0.2,0.3,0.2,0.4C-115.3,211-115.1,211.9-115.1,212.8z M-116.9,209.5c-0.6,0.2-1.3,0.5-2,0.4s-1.9-1.2-0.8-1.8
		c0.6-0.4,1.5-0.2,2.1,0.1c0.5,0.2,0.9,0.6,1.2,1C-116.5,209.4-116.7,209.5-116.9,209.5z"/>
	<linearGradient id="SVGID_4_" gradientUnits="userSpaceOnUse" x1="-77.05" y1="184.2875" x2="-77.0055" y2="184.2875">
		<stop  offset="0" style="stop-color:#EBBF64"/>
		<stop  offset="0.2728" style="stop-color:#D0B56F"/>
		<stop  offset="0.6403" style="stop-color:#EDCF76"/>
		<stop  offset="0.7434" style="stop-color:#DDB966"/>
		<stop  offset="1" style="stop-color:#C79B50"/>
	</linearGradient>
	<path fill="url(#SVGID_4_)" d="M-77,184.2C-77,184.2-76.9,184.3-77,184.2C-77,184.3-77,184.3-77,184.2L-77,184.2L-77,184.2z"/>
</g>
</svg>
